<svg id="图层_1" data-name="图层 1" xmlns="http://www.w3.org/2000/svg" viewBox="0 0 1200 1200"><defs><style>.cls-1,.cls-2{fill:none;stroke-width:2px;}.cls-1{stroke:#21e8de;stroke-linejoin:round;}.cls-2{stroke:#000;stroke-miterlimit:6.08;}</style></defs><title>中国</title><polygon class="cls-1" points="864.79 537.44 867.66 540.58 883.58 543.56 884.28 552.27 899.68 557.98 921.62 544.12 938.97 551.64 951.48 551.92 954.71 562.37 927.06 567.8 917.93 578.32 898.98 588.07 890.54 598.32 888.89 599.49 885.13 599.37 884.01 599.97 884.05 601.56 881.29 605.21 882.31 605.89 880.66 606.75 877.47 606.12 875.6 608.22 875.14 611.55 871.22 612.54 870.53 612.41 870.75 611.26 869.93 610.61 870.64 609.36 868.82 609.18 869.16 607.39 866.32 606.86 863.54 607.39 863.38 609.88 861.11 609.45 858.72 610.97 856.85 610.46 854.74 608.48 852.98 609.61 852.72 611.04 851.83 611.12 850.27 607.6 849.03 607.29 849.45 606.28 847.29 603.13 843.58 601.7 843.28 602.19 840.43 601.8 837.02 602.53 836.14 605.31 835.43 605.52 835.59 607.56 832.94 609.27 832.03 608.74 830.92 609.11 830.27 608.24 829.03 608.47 828.37 607.88 827.79 608.54 825 609.05 822.45 608.3 822.02 609.11 819.29 608.77 817.5 606.94 817.21 604.57 814.63 603.15 813.63 603.42 813.78 602.35 812.66 602.13 813 601.3 811.04 600.4 807.25 601.1 805.06 600.15 805.83 597.21 807.52 596.58 809.3 593.34 812.21 591.95 813.06 592.52 815.64 591.12 815.17 589.36 816.02 589.65 818.53 586.46 821.6 586.25 822.87 584.21 825.97 583.81 825.66 583.09 826.8 581.77 829.05 581.87 830.38 579.65 830.24 579.03 829.48 579.15 828.34 580.19 824.55 580.99 819.48 583.18 818.3 582.76 818.32 583.49 815.82 585.38 815.68 581.85 817.47 580.94 818.1 577.92 817.93 576.19 816.99 574.91 815.8 575.16 814.33 571.6 815.45 569.3 818.26 566.4 822.17 565.37 823.99 561.93 825.72 560.39 826.48 557.94 827.59 557.32 827.97 555.32 831.47 554.44 833.04 554.79 833.83 554.02 832.8 553.53 832.78 552.62 833.71 552.77 834.71 550.63 836.87 552.63 843.87 545.65 856.28 545.31 859.07 541.04 861.52 540.85 864.75 537.32 864.79 537.44"/><path class="cls-2" d="M716.8,917.1,700,926.44l-16-6.06-.56-16.72,9.62-8.78,21.32-5.43,11.21.48,4.39,7.39-8.57,8.57Z"/><polygon class="cls-2" points="940.22 806.06 928.45 837.2 920.09 853.15 909.78 836.78 907.55 822.36 919.04 803.27 934.72 788.57 943.64 794.35 940.22 806.06"/><polygon class="cls-1" points="835.53 607.59 836.59 607.34 839.77 610.12 839.4 610.5 843.08 611.03 844.38 612.46 846.97 612.38 847.14 614.54 848.79 615.34 848.2 616.58 850.27 618.1 851.46 618.66 854.59 618.26 855.8 619.49 857.65 618.78 858.93 620.33 859.86 619.45 861.43 622.17 862.5 622.22 861.97 625.27 866.03 625.24 866.52 624.58 870.79 625.01 869.39 627.45 869.4 630.15 867.97 630.18 865.98 635.02 866.85 635.03 867.97 636.67 870.18 636.02 870.58 635.19 871.22 635.5 871.95 639.49 873.3 640.14 871.75 640.82 872 642.33 872.76 642.11 873.04 643.67 874.34 643.82 874.4 644.81 879.64 644.32 881.08 644.83 881.88 644.38 881.68 642.3 882.99 642.16 883.82 640.18 887.03 640.17 887.03 641.22 888.76 642.76 890.27 642.65 891.19 647 890.88 647.65 890.21 647.17 889.57 649.22 888.34 649.99 887.35 648.77 886.3 648.96 884.55 647.97 884.81 647.31 878.35 647.39 878.84 649.5 880.61 649.58 880.94 652.2 879.97 652.98 880.11 654.54 877.08 655.02 876.93 656.38 874.86 657.19 874.4 660.03 877.08 661.79 876.68 662.68 877.53 663.75 879.46 663.32 880.4 663.99 880.04 665.67 881.37 665.86 882.29 664.9 882.8 666.04 884.05 666.11 884.19 669.88 880.91 672.3 882.57 673.69 888.45 673.63 890.21 672.3 892.16 673.29 893.4 673.08 893.66 672.35 894.31 674.68 899.12 675.5 897.9 681.34 896.25 682.42 895.36 684.93 894.22 684.25 892.86 685.5 891.44 685.61 891.46 687.12 893.09 687.25 894.52 690.39 891.64 690.88 891.18 691.86 887.61 691.58 885.87 690.53 884.46 691.38 885.26 693.43 883.81 694.45 884.68 694.59 884.68 698.55 881.97 700.6 881.66 702.73 877.96 705.07 876.7 707.08 875.05 707.68 873.38 707.35 873.21 708.74 872 708.56 871.01 709.33 869.77 708.74 869.88 707.14 867.48 705.75 861.51 706.3 860.52 705.04 858.26 705.36 858.05 704.25 856.56 703.61 855.91 700.49 854.71 701.19 854.28 700.46 852.75 700.82 852.66 699.32 851.86 698.97 849.14 700.8 850.36 701.8 849.91 703.14 847.65 703.68 844.62 705.87 843.07 705.32 842.3 705.98 840.95 704.58 841.52 703.84 840.99 703.47 844.07 701.2 845.78 698.52 841.25 696.11 839.75 696.5 838.72 699.54 837.41 699.52 833.34 701.77 832.23 700.82 830.87 701 829.68 698.27 829.51 693.58 827.88 691.81 826.38 691.53 825.98 690.13 827.15 689.31 826.2 688.76 826.57 687.51 823.56 684.28 823.96 682.93 825.66 682.53 825.66 680.77 829.68 678.86 829.13 677.87 827.08 677.32 825.78 675.31 823.76 675.97 821.53 674.08 820.03 675.31 819.03 673.25 817.79 672.92 815.96 670.35 816.08 668.48 818.23 666.34 818.44 665.1 821.93 663.04 824.61 663.44 826.51 662.74 827 655.61 825.9 649.31 825.16 648.93 826.77 647.73 823.93 649.75 823.64 648.99 823.41 649.54 822.2 649.17 821.62 650.81 819.48 650.96 816.68 647.65 814.65 648.06 814.63 647.42 812.58 647.36 812.58 642.19 806.43 639.71 807.37 639 806.88 636.9 807.51 636.32 809.36 637.7 811.58 637.73 814.42 636.78 815.84 633.05 814.87 632.03 815.47 629.64 816.5 629.62 816.79 628.56 821.17 628.03 819.78 624.35 820.75 624.19 821.06 622.5 819.41 622.3 820.43 619.37 821.42 618.71 824.49 618.6 825.37 619.91 826.04 619.35 827.6 619.96 827.92 621.8 829.39 622.65 829.68 624.21 831.38 625.66 836.73 623.79 836.84 622.84 839.23 621.77 840.72 622.13 840.86 620.49 838.52 617.75 839.52 614.6 835.39 614.74 835.31 613.85 832.4 612.58 831.35 611.03 831.97 608.77 832.87 609.3 835.53 607.59"/><polygon class="cls-1" points="843.92 511.17 841.96 511 842.16 511.58 839.41 510.95 836.08 513.02 837.07 514.42 834.89 514.24 831.89 511.75 827.99 511.52 827.51 512 826.77 511.38 824.5 513.07 823.47 513.07 822.14 511.35 819.78 511.4 818.13 510.3 818.29 508.62 816.99 507.96 819.83 507.19 818.84 506.63 818.76 505.29 816.98 504.51 817.44 503.09 820.66 501.27 823.36 500.94 823.98 500.13 825.13 500.87 825.9 499.33 827.46 498.51 826.51 496.7 823.78 494.96 823.87 494.05 823.07 493.84 823.51 493.08 826.48 491.6 827.94 492.34 830.24 491.65 832.86 488.3 833.96 488.92 836.22 488.35 837.1 488.69 834.77 485.54 837.39 486.23 836.99 484.65 839.78 484.62 840.74 483.04 841.73 483.54 841.34 484.62 842.28 486.1 844.83 487.42 847.71 490.13 850.56 489.97 853.78 490.89 857.49 490.68 857.47 491.23 856.1 491.31 856.36 492.37 853.66 492.37 851.63 493.94 852.06 496.3 855.22 499.17 855.22 500.28 851.61 501.98 847.77 503.03 843.5 503.04 843.53 505.46 846.15 506.48 846.77 507.81 845.77 509.49 843.92 511.17"/><polygon class="cls-1" points="682.49 654.7 685.4 656.64 686.9 656.68 689.69 658.87 692.54 659.46 695.7 662.17 697.23 662.61 697.49 664.27 703.18 663.99 706.14 664.61 706.05 667.43 707.79 667.17 710.9 668.16 710.32 668.88 714.13 670.53 715.14 675.3 713.7 676.3 714.64 678.46 712.91 682 711.77 681.42 711.43 680.12 707.02 681.06 703.16 684.86 702.38 684.49 700.77 685.5 698.6 687.99 697.81 685.29 694.57 687.22 693.57 686.61 694.14 685.01 692.65 684.86 688.44 687.94 686.66 687.89 685.85 686.17 684.72 686.24 684.98 687.08 683.55 688.37 680.67 688.11 680.2 690.02 683.57 692.77 682.18 696.56 682.87 697.78 682.53 700.11 680.87 699.83 679.83 701.12 680.57 701.19 680.91 702.71 682.28 703.17 683.92 700.34 685.2 700.43 685.62 703.54 687.16 704.42 687.73 703.93 687.79 704.67 688.93 704.36 689.32 705.44 689.98 705.41 689.21 707.82 690.64 708.87 690.18 710.68 693.22 709.33 694.5 711.83 694.05 713.04 696.41 714.62 698.11 716.08 696.47 719.34 696.58 721.25 697.8 722.16 695.46 724.3 698.11 724.86 697.21 726.61 694.87 728.37 693.66 732.61 692.4 732.23 691.77 733.2 688.18 731.61 687.21 732.49 686.51 731.16 687.43 730.25 687.5 727.92 686.36 726.66 684.94 727.34 685.82 728.54 685.51 729.73 683.64 729.36 684.18 728.18 683.57 725.97 684.32 725.81 684.77 723.95 683.61 723.48 681.62 724.16 679.03 723.25 679.93 721.01 678.37 715.36 677.03 716.37 676.21 715.62 673.7 715.34 672.65 716.51 671.43 716.31 669.41 717.72 667.7 713.37 666.25 714.22 664.45 713.74 663.94 712.74 662.41 713.61 661.75 713.03 660.91 713.4 661.16 714.72 660.24 715 660.08 716.79 661.48 718.02 659.28 720.52 657.55 721.38 655.39 719.1 653.19 719.16 652.68 721.25 650.92 720.54 649.7 721.38 649.43 722 650.64 723.1 649.47 724.86 648.52 724.24 647.61 727.45 645.09 726.41 644.54 726.85 646.22 723.51 644.74 722.96 645 722.42 642.64 720.14 642.27 721.15 643.6 723.28 642.55 725.01 643.17 725.89 641.27 725.21 640.77 726.09 639.91 725.56 640 724.01 637.66 719 634.38 718.75 634.33 717.93 633.16 717.32 631.54 718.87 629.6 718.13 627.98 714.97 627.48 711.38 626.68 712.07 622.84 711.33 622.09 710.28 622.41 709.11 621.45 708.25 620.24 708.34 620.07 705.24 620.59 705.5 622.04 703.76 623.15 703.85 623.32 703.04 624.97 702.76 625.83 700.8 628.13 700.38 628.42 697.05 624.43 694.22 626.73 693.54 626.05 692.24 628.15 692.61 628.39 690.59 630.08 689.17 630.43 689.98 631.32 689.64 636.21 691.39 638.09 693.97 639.33 693.01 641.79 692.74 642.13 691.86 644.41 691.66 645.93 692.35 645.45 693.26 648.02 697.01 651.45 696.91 652.4 695.96 653.3 696.87 654.31 696.44 657.41 693.18 662.84 685.2 661.16 683.16 662.87 681.28 664.27 681.05 665.36 681.82 666.93 680.4 667.82 681.79 669.92 681.91 672.03 680 671.17 679.64 671.32 678.55 673.5 677.16 672.63 676.04 674.11 674.09 672.91 673.89 672.93 673.34 675.95 671.72 675.44 670.89 676.81 669.16 676.21 668.56 678.8 668.26 680.8 665.89 681.76 666.09 682.87 665.07 682.73 663.41 679.25 661.45 677.55 659.38 679.51 659.01 679.13 657.3 681.11 657.44 679.74 655.16 682.49 654.7"/><path class="cls-1" d="M640.78,726.09l.5-.88,1.89.68-.61-.88,1.05-1.73-1.32-2.14.37-1,2.36,2.3-.28.54,1.49.55-1.68,3.33.56-.43,2.51,1,.91-3.21,1,.62,1.15-1.76L649.43,722l.27-.6,1.22-.85,1.76.71.51-2.09,2.2-.06,2.16,2.29,1.71-.87,2.21-2.51-1.4-1.23.15-1.79.93-.27-.25-1.32.83-.37.65.58,1.52-.87.51,1,1.81.49,1.46-.86,1.71,4.35,2-1.41,1.21.2,1-1.17,2.51.28.82.75,1.34-1,1.56,5.64-.89,2.24,2.59.91,2-.67,1.15.45-.44,1.87-.76.17.62,2.22-.54,1.17,1.86.37.31-1.19-.89-1.2,1.42-.68,1.15,1.26-.06,2.33-.92.91.69,1.34,1-.89,3.59,1.59.63-1,1.27.39,1.2-4.24,2.34-1.76,0,3.58.51.75,1.65.19-1.62,4.11,1.5.5-1.45,1.45.81,2.36-.58,1,2.36.8.41,3.16-3,1.87-.12,1.1L695.9,747l-1,.66-.34-.51-.57,1.67-1.19.54.25.75-3,1.47-.48,2-1.81.56,1.78,1.6,4.65-2.42-.24,1h1.25l1.54-1.58,4.38.37-.25,1.3,1-.11.85,2.44L700.36,758l1.52.11.07,2.22-4.55,1.18,1.42.81,1,2.32-2.66,4.06,1.29,1.45,2.73-.79-.77,1.07,1.36,2.28-.81.85.28.94-2.87,3.88v1.81l-1.88.26-1.33-1.59.22.8-.9.31-.41-1.13-2.36.48-.48,1-1.36.37.87.74,1.23-1.14,1.32-.08-.75,1.73.77,1.93-.68.51-2-.71-2.51.58-.5-2-1.4.17-.94.94.37,1L684,785.45v2.78l-2.11-2.48-1.46.21-1.85-1.78-1.56,2.06L675.3,786l.71.67-1,.52-.57,3.45-2.05,0-2.95,1.47H668l-.46-2.33-1.15.85-.57-2.29-3.7,2,.13-1.68-1,.23-.23-2-2.14-.65.57-1.16-2.1-1.35-.08-.94-3.22.89.15.83-2.08,1.59,1,1.68-.46,2-1.28-.18-.6,1.23-4.57.31-1.37,1.57-2.8,1.27-5.71,1.22,1,1.86-.52,1.9-3,2.5-1.78-1.7-2.37.46-4.15-2-1.73,0-1.61-2.45-3,0-1.21-1.24-2.65,1.54-.77,2.35-3.12,1-.58,1.22-2.19,1.13-3.9-2.15.29-1.79,3.19-3.31-.63-1.21-1.09-.2,1-.13,1.35-2.72,1.39.93.12-1.62-3.26-.88-.22-1.28-1.91-.83.35-2.27-2.5.82-.12-2-1.93-.45-.32-1,.23-1.85,1,.34,1.22-2.68.31-3.81,1.27-.45.43-3.05,2.73-2.41-.36-1.16-1.79-1.78-.1-1.13-2.13-.4-.94-2.08-1.31,1.74-4.12-.43-2.33,2.46-3.82-.38-1.3-1.7.42-2.12-.7.09-.6-1.51,1.42-1.28,0-1.54-1.48-1.89-1.63.85-.28-1.17,1.13-.08-.61-.89,1.48-.4,3.23-3.3,1.23-2.61,1.59.14,0,1.1,3.25,2.08,1.45-.62,2-3.18,3,1.24.43,1.29,1.57.53,2.35-.65.72.52.82-.71,1,1.18,4.07-2.46,2.28.85,1.33-2.77-.62-.57,1.51-1.48-.06-1.62,3.55-1.31,2.9,2.23,8.63-2.37,2.28.49,2.75-1.31-.28-2.91-1.22-.82-.21-1.53-1.92-1.37-2.09.45-.23.68-1.5-.68-1.34.32.06-2.34-1.34-1.19-.79-.51-1,1.23-1.68-.87-.37-3.32,2.3-2.45,3,.25-.06-1.13,1.61-1.84,6.78,5,1.06.24Z"/><path class="cls-1" d="M851.61,502l-1.22,3.13.43.86,2,.6-2,.48.77,1-.8,2.81-3.48-.31-.5-1.33-1,.28,1-1.68-.6-1.31-2.64-1,0-2.42,4.29,0ZM791.86,489.3l-1.79-1.72.6-.61-2-2.45-3-2.22,1.87-1.4,1.35-.19.62-1-1.83-1,.35-1.89-1.36-1.1,3-1.6,4.35.26-.73-5.67,2.44-2.38,3.12-.86.21-2.76,1.27-.48,3.64.56,1.26-1.16,1,.83-.94,1.4,1.52,1.08.9,3.18-1.42.62.55,2.11-.77,1.9L811,472l2.5,1,.72-.91.51.57,1.17-.39-1-1.11.44-.71,6.09-2.25L824.9,466l1.79-.09,1.44,3.11,1.14.17,1-.28.11-1.29,1.68-.2.43-1.31,2.13-1.44,1.59.23-.25,1,1.94-.73,1.11,1,3.46-.12.27-.93,2.64-.71.09-1.79L843.55,461h2.51l.14-4,3.33-1.52,5.53.42,1.75-1.28.15-1.12,1.2,0,.3-.51,1.08.87,3.79-.93,4.24,4.24-.2.94,1,.94-1.78,1.1,2.67,1.37-.28,1.2,1.24.56-.76.86,1.63.08.25-.93,1-.09.52,1-1,.26,1.34.83-.87,1.16,1.45,1.39-1.06,1.61-2.14-.94-.82,1.41,1.77,3,1.77.44.07,1-.9.73,1.54.91.33,2.06,3.17-.64,4.43.58,1.73-1,.91,1.45,1.14-.34,4.89.7.75-.64-.08,1.18-1.35.66.35.72-2,1-.2.94-2.49.35-.15.66,1.63.62-.6.82-1.83-.05-.91,3.12,4,2.6,2.4-.52-.51,1.71,1.58,0-.2.68,1.09.66,5.78-.08.47,3.8,1,1.43-.41.71,2.33.82.55,2.8-3.28,1.88-12,12.61-18.08.86-.88-2.12-1.34-.83-1.38.2L866,511.8l-3.27-.42-1,1.13-.36-.79-1.4-.26.87-1.4-2.3-2.08-.7-2.18.59-1.88,3.27-.09,1.08.52.54-1-1.08-.2.09-1.05-2-.48-1.93-2.52-3.16,0L852,496.29l-.44-2.38,2-1.55,2.68,0-.26-1.06,1.39-.08v-.56l-3.7.22-3.22-.92-2.85.18-2.89-2.73-2.54-1.31-1-1.47.4-1.09-1-.49-1,1.57-2.78,0,.39,1.58-2.61-.71,2.33,3.17-.88-.34-2.27.55-1.09-.6-2.64,3.35-2.3.67-1.46-.72-3,1.46-.45.78.8.2-.07.89,2.73,1.76.95,1.79-1.56.81-.77,1.56L824,500.1l-.61.83-2.7.34-3.23,1.79-.47,1.43,1.78.79.1,1.34,1,.55L817,508l1.31.66-.17,1.68,1.66,1.1,2.35,0,1.34,1.71h1l2.27-1.66.74.6.48-.46,3.9.23,3,2.47,2.17.2-1-1.41,3.33-2,2.73.64-.2-.59,2,.15,0,3,1.16.61-.6,1.64.66-.35.56.56-.67,2.54,1.48,1.25-.55,1.4-2.84.73-.95,1.82.86,3.76h1.66l1.56.95,2-.21,1.62,2.23,2.42-.78.57,1.12,5.69-.77.32-.89,3.68,4.24,2.2,3.44L861.46,541l-2.45.18-2.79,4.28-12.41.33-7,7-2.16-2-1,2.15-.93-.17,0,.91,1,.51-.79.76-1.57-.36-3.5.88-.39,2-1.11.6-.75,2.46L823.93,562l-1.82,3.44-3.91,1-2.81,2.9-1.13,2.31,1.48,3.56,1.19-.24.94,1.28L818,578l-2.91,1.6-1.62-2-2.33-.45-.32.79-1,0-.91,1.89-1.71.51-.55-1.74-5.79.31-3.7-2-6.63-.92-1-1.57-.88-.05.11.72-.45-.74-2.19.48-2.19-.52-.43-1.24-3-1.4.65-1.29-.85-1.18-1.28-.33.54-1.25-.82,0L783,566l.31-1.81,1,.59.81-.45-.47-5.23,2.33-1.83,4.94-8.47-1.41-.89-1.45.28,1-1.27-1.41-1-1.83-4.69-1.24-1,.36-.84-4.89-1.37-.74-.79-.39-2.19,1.15-1.6-.42-1.79,1-1.7,1.88-.18.08-1,1,.17.77-1.21.71.1.31-1.38-1.56-1.09-.14-1.65,2.33-1.84,3-1.4,1.28,1.65,1.73,0,1.62-1.39,1.37.67.55-1.58,1.56-.83-.88-.58.08-1.08,2.6-4.88-2.8-2,.58-2.75-.87-1.46h-3.35l-3.15-1-.72-1.46-2.16-.34,1.17-.62.46-1.63.78,1.34.87-.3v-2.18l1,.24,2-.43.42-.79,3.81-.44,1.52-1.41-1.62-.8-2.57.05-.88-2.27.26-2-1.59-.69Z"/><polygon class="cls-1" points="783.99 574.24 786.18 574.76 788.37 574.3 788.82 575.02 788.73 574.31 789.59 574.36 790.58 575.93 797.21 576.87 800.91 578.89 806.71 578.58 807.26 580.33 808.97 579.82 809.88 577.92 810.87 577.89 811.21 577.12 813.54 577.55 815.16 579.54 818.07 577.93 817.44 580.97 815.65 581.87 815.77 585.4 818.29 583.52 818.27 582.78 819.43 583.21 824.5 581.02 828.29 580.2 829.44 579.18 830.19 579.06 830.32 579.68 828.99 581.9 826.74 581.81 825.6 583.12 825.9 583.84 822.8 584.26 821.54 586.28 818.47 586.49 815.96 589.68 815.11 589.39 815.57 591.15 813 592.54 812.15 591.97 809.24 593.36 807.46 596.59 805.77 597.23 804.98 600.17 807.17 601.11 810.98 600.4 812.94 601.31 812.6 602.13 813.72 602.36 813.55 603.44 814.56 603.16 817.13 604.58 817.42 606.96 819.21 608.79 821.94 609.13 822.37 608.31 824.92 609.08 827.73 608.57 828.29 607.9 828.96 608.5 830.21 608.25 830.86 609.14 831.97 608.77 831.35 611.03 832.4 612.58 835.31 613.85 835.39 614.74 839.52 614.6 838.52 617.75 840.86 620.49 840.72 622.13 839.23 621.77 836.84 622.84 836.73 623.79 831.38 625.66 829.68 624.21 829.39 622.65 827.92 621.8 827.6 619.96 826.04 619.35 825.37 619.91 824.49 618.6 821.42 618.71 820.43 619.37 819.41 622.3 821.06 622.5 820.75 624.19 819.78 624.35 821.17 628.03 816.79 628.56 816.5 629.62 815.47 629.64 814.87 632.03 815.84 633.05 814.42 636.78 811.58 637.73 809.36 637.7 807.51 636.32 806.88 636.9 807.37 639 806.43 639.71 812.58 642.19 812.58 647.36 814.63 647.42 814.65 648.06 816.68 647.65 819.48 650.96 821.62 650.81 822.21 649.17 823.41 649.54 823.64 648.99 823.93 649.75 826.77 647.73 825.16 648.93 825.9 649.31 827 655.61 826.51 662.74 824.61 663.44 821.93 663.04 818.44 665.1 818.23 666.34 816.08 668.48 815.96 670.35 814.77 670.76 813.04 669.96 813.34 667.43 811.81 666.45 810.79 668.11 809.19 667.99 808.77 669.05 808.23 668.51 805.55 669.24 801.51 666.75 800.12 667.36 800.49 663.32 798.09 663.99 795.05 663.62 793.92 662.02 792.72 661.63 788.82 663.49 788.31 661.51 787.6 661.13 786.29 661.74 785.6 659.38 784.5 658.87 785.13 658.01 784.06 656.38 784.74 656.31 785.04 654.93 784.21 653.96 784.81 651.75 784.04 650.72 782.76 650.64 781.96 651.81 778.01 653.48 773.91 650.47 772.51 651.44 770.29 650.53 769.55 651.55 767.25 651.06 765.17 652.07 761 650.96 758.92 651.93 757.3 651.63 756.59 652.44 754.77 651.18 753.19 651.3 751.43 649.62 750.39 649.93 749.36 648.74 748.14 649 744.86 647.06 743.39 647.02 743.29 646.46 741.96 647.25 739.03 644.61 739.94 643.78 738.91 644.02 736.38 641.29 735.68 641.62 736.13 639.92 735.45 638.6 733.7 638.57 734.53 637.7 732.63 635.88 731.58 636.35 731.91 635.65 730.49 634.39 731.4 632.8 730.97 628.28 727.56 626.32 726.48 623.87 723.18 622.75 722.95 621.93 724.5 620.91 722.75 619.37 723.87 616.76 719.94 615.22 719.66 614.4 721.08 613.49 720.7 611.97 719.71 612.06 718.43 610.15 719.2 609.08 718.85 608.3 724.74 608.5 726.09 607.29 728.88 607.17 729.42 605.8 730.15 606.35 733.85 604.33 735.22 604.66 741.96 603.55 743.95 601.64 743.92 600.79 746.46 600.02 746.94 599.22 749.42 599.04 750.93 599.97 751.5 595.16 754.51 596.13 755.88 595.68 755.85 596.32 756.79 596.41 758.06 595.81 762.35 596.32 763.01 595.44 763.49 596.28 765.03 596.67 766.18 595.64 768.36 595.78 769.76 594.71 769.62 593.8 772.06 594.14 773.83 592.04 775.61 592.37 775.62 591.37 779.45 590.33 780.49 588.05 781.94 588.27 780.97 584.75 782.56 584.38 782.19 581.43 783.15 581.48 783.39 580.79 782.64 580.54 782.5 578.83 783.52 578.55 782.58 578 783.35 577.69 782.85 577.33 783.99 574.24"/><polygon class="cls-1" points="975.26 240.51 1004.52 246.29 1021.66 253.47 1033.71 273.12 1041.1 281.55 1047.86 293.46 1055.6 312.5 1089.1 318.82 1112.23 332.68 1120.1 351 1149.78 351 1166.7 343.34 1199.03 337.56 1188.72 355.11 1181.13 362.22 1174.44 383.54 1161.34 402.49 1137.65 399.07 1120.87 405.97 1126.02 422.62 1124.57 436.8 1123.4 437.43 1120.99 435.58 1117.94 436.88 1116.98 435.55 1113.27 433.87 1113.35 433.28 1111.17 433.14 1107.55 426.93 1107.81 425.02 1102.86 429.01 1101.53 428.72 1101.09 426 1099.91 425.34 1096.71 426.7 1096.83 427.81 1095.9 428.3 1091.22 428.33 1088.5 429.86 1086.45 429.55 1085.77 430.12 1085.57 434.18 1081.7 435.26 1080.58 434.64 1079.19 434.78 1077.15 431.25 1076.26 431.03 1076.83 430.62 1075.52 428.13 1074.77 428.04 1071.17 422.87 1071.25 418.65 1069.24 416.06 1066.11 417.68 1065.33 419.33 1063.11 419.11 1063.97 420.42 1063.28 421.12 1064.08 421.7 1062.98 422.37 1064.03 423.37 1060.22 424.66 1057.85 424.56 1056.94 424.01 1056.57 422.1 1056 422.69 1054.29 421.92 1054.58 420.47 1051.91 418.17 1052.36 417.43 1051.45 416.11 1053.08 415.8 1053.19 414.86 1050.53 413.68 1048 413.59 1047.61 414.27 1045.98 413.42 1043.52 414.93 1042.34 409.98 1044.23 407.45 1041.95 405.08 1041.8 403.94 1038.56 403.89 1034.03 401.7 1031.45 402.06 1030.05 403 1028.74 402.91 1027.81 403.82 1022.41 403.26 1019.5 402.01 1017.25 400.01 1017.1 396.64 1015.48 396.55 1013.38 397.4 1012.27 397.12 1012.62 397.71 1010.62 398.91 1009.49 398.28 1009.28 398.88 1008.58 398.37 1005.36 399.1 1004.34 398.08 1004.39 396.91 1002.62 396.95 1001.94 396.11 1000.61 398.08 999.39 398.08 999.02 397.52 996.45 398.14 995.48 397.77 994.72 398.59 993.27 397.63 991.79 398 990.96 395.95 989.29 395.81 988.49 394.29 987.07 394.5 986.66 393.14 984.27 391.83 985.47 389.97 983.25 388.16 984.3 387.39 983.97 386.79 984.95 386.62 984.11 385.87 984.14 384.03 983.42 383.89 983.31 381.55 982.26 382.13 982.2 381.29 981.12 381.27 975.79 382.66 974.52 382.13 971.88 382.81 969.4 381.83 968.06 382.27 964.96 378.93 964.7 376 965.59 375.81 965.62 375.09 968.97 375.66 970.02 374.27 976.28 373.7 976.99 371.36 975.88 371.1 976.62 370.79 976.37 369.86 975.82 369.78 975.52 371.1 974.41 371.11 973.95 370.56 974.95 368.55 972.61 368.7 970.82 367.53 970.76 368.32 972.05 368.92 971.7 370.28 968.82 370.59 967.8 372.64 964.87 373.13 962.57 371.22 962.52 368.46 960.72 368.83 960.16 368.12 961.64 366.62 957.03 365.27 952.81 360.96 954.89 359.76 956.31 357.26 968.18 352.1 970.71 348.95 975.92 347.41 984.13 340.92 989.42 337.93 990.36 338.84 990.16 341.15 991 342.66 992.44 343.51 992.16 344.54 993.46 345.02 992.38 346.55 994 345.81 995.38 342.43 994.15 340.93 994.88 339.24 994.21 337.57 995.78 335.95 996.03 333.72 996.74 332.25 997.68 331.9 997.79 330.36 998.62 330.36 1000.07 327.95 999.75 326.62 1001.55 325.31 1004.26 325.39 1005.79 326.36 1007.86 325.14 1008.78 320.02 1007.55 318.41 1008.18 318.39 1008.11 317.3 1006.04 316.28 1006.59 315.69 1007.32 316.57 1007.84 315.83 1007.97 313.29 1006.98 312.67 1007.97 312.55 1008.34 311.88 1007.06 310.2 1009.22 309.29 1008.37 308.41 1010.09 308.24 1008.86 307.87 1009 306.92 1010.87 306.67 1010.06 306.16 1012.61 304.96 1012.51 303.68 1013.72 303.36 1014.24 302.43 1013.46 301.48 1014.75 301.6 1014.5 300.83 1015.88 300.77 1017.26 299.99 1016.77 299.75 1019.65 298.73 1018.95 296.19 1019.64 295.72 1018.3 294.78 1018.96 294.35 1020.02 294.63 1019.76 294 1021.6 293.15 1021.06 292.65 1022.22 292.7 1022.35 291.9 1023.08 292.38 1024.67 290.57 1023.73 289.86 1024.27 289.31 1022.66 288.34 1023.03 287.58 1021.89 287.83 1020.42 287.15 1020.21 285.85 1018.22 285.47 1017.16 283.51 1010.39 277.82 1006.18 277.64 1005.9 277.11 1004.99 277.7 1004.71 279.49 1002.15 280.27 1002.43 281.24 1001.15 282.51 999.12 282.37 998.28 283.22 996.38 283.6 995.28 282.75 993.63 282.56 992.58 283.08 991.98 284.67 990.85 284.67 988.45 283.16 982.63 284.11 981 282.82 980.07 282.94 978.58 282.2 977.48 283.74 970.25 285.08 965.93 283.71 964.62 283.87 963.87 282.29 961.77 280.66 962.37 279.41 959.72 275.49 960.15 274.8 958.87 272.65 959.25 270.93 958.3 270.9 957.28 269.22 957.4 267.86 959.49 267.54 960.44 265.61 954.43 264.76 953.81 262.86 953.06 263.17 951.16 261.27 949.16 261.4 948.34 260.5 944.1 264.71 941.89 264.99 939.53 264.33 938.25 261.91 935.73 261.63 931.92 259.43 929.36 258.93 937.34 254.26 937.44 253.19 941.52 249.8 940.24 248.2 938.35 247.55 938.62 246.26 933.29 243.61 949.42 241 975.26 240.51"/><path class="cls-1" d="M696.41,714.62l.82-.27-.33-1.77,1.81-1.26-.2-1.25,1.35-2.76.61.14-.16-.82.62.31,1.05-2,3.9.21-.42-1.15,1.28-.44.22-1.26,1.83-.37,4.75-.29,5,3,1.85-1.48,1.34.28,2.15-1.53-2.64-2.67.94-1.48L721,697l3-1,1.82.66.18-1.42,1.39-.17,1.91.28.11.91,6.26.46,2.74,2.42,2.61-.22.48.7,2.14,0,1.68-.57,4.18,1.59.26.91,1.68.91.11-.53,0,1.73,2.54,1,.93-.68-.2.8,1.34.73-.33,1.69,3.16-2.65,4.58.73,4-3.95.93,2.16L770.3,702,770,703.3l-2,1.32.56,3.1,1.92-.63.73,1.45,1.06-.17,8.54-7.86-.41,3.24h2.25l1.4,2-2.08,1.08,2.34,1.42-2.88,3.61,1.79.57-.77,1.35.62,1.5.75-.42.3.91,1.49-.83,1.17,1.31,1.34-.2.36,1.91.82-.14,1.18,2.13,1.62.42-.41,4.24-.87,1.06,2.53,1.27-.74.95,1.6.8-.06,1.32-3.17,2.76-1.92.18.84,2.39-2.3,1.11-1.16-.31-1.88,1.34-.57,1.14.6,1.59-3,3.21-.65,1.85,1,.56-.69.81.49,2.36,1.62.26,3.44-1-.09,1.9-1.95,3.53,3,2.93-1.72,2.87.51,2.88.89.76,4.1.52-.67,3.44-1,.6,0,1.37-1.85,2.81,1.93-.45.84.5,1.75-.9,1.17,1.13-2.62,1.6-1-.09-.66,1.16.39,1.74-2.27,3.88,1.48,3.18-.94,1.57.43.47-1.47.4-1.27,2-1.08,0-.25-.66-3.44,1-.75-1-3.32-.66-1.22-.91-.2-1.42-2.68.63-.62,1.47-2.19,1.26-1.68.77-1.33-.52.13,1.67,2.17-.13,1.05,1.14-1.31.74.9,1.41-.68,1.14.57,1.83-2.84.65h-1.59L763.13,792l-2.25.07L759,791l-.93.77-.67-1-2,.62-1-.82-1.8,4.22,1.11,1.35-.35,1.48-2.6,1.92-6.15-.87-2.77,2.82-2.45-.62.81-2.5-.94-3.39.73-.91-1-.42.36-1.11-.8-.58-1,.66-1.47-.94-3.3,2.22,0,1.68-1,.34-1,.08-.77-1.51.79-3.1,2.08-1.08-.09-1.33,3.85-3.08.83-3.13-.67-2.13,2.63-1.1-.29-1.23,1.31-.57-3.15-.69-.94.91-1.18-.84-.36-2.12,1.28-2.43,0-2.6-5.21-1.11-.52-1.25-.94,2.51-3.13.11-.39-1.26-.6.43-1.91-.82-2,3-2.54,1.62-1,2.3-1.41.24-1.11-2-.8,1-1.69-.49.35-2.44L712,772l-1.19-.77-1.89,3.21-1.52.26.68,2-.75,1-2.47-.25,1.19-2-1.59-1.19-2.19,1-.9-.64-.27-.94.8-.85-1.36-2.28.77-1.07-2.73.79-1.29-1.45,2.67-4.06-1-2.33-1.42-.8,4.55-1.18-.06-2.22-1.53-.11,2.33-1.31-.85-2.44-1,.11.25-1.3-4.38-.37-1.54,1.58H694l.25-1-4.66,2.42-1.77-1.6,1.8-.56.48-2,3-1.47-.24-.75,1.18-.54.57-1.67.34.51,1-.66,1.79.51.13-1.1,3-1.86-.42-3.17-2.36-.8.59-1-.82-2.36,1.45-1.45-1.5-.5,1.62-4.11-1.65-.19-.51-.75,0-3.58.9-1.76-2.65-.57,2.34-2.14-1.22-.91-.11-1.92,1.64-3.26Z"/><polygon class="cls-1" points="703.18 663.99 704.29 662.42 703.26 660.69 704.15 659.86 703.3 658.27 703.98 656.78 703.63 654.77 701.5 652.95 702.12 650.36 704.26 648.28 703.92 647.26 709.59 647.28 711.68 648.16 713.09 646.82 714.54 647.25 715.36 646.49 714.34 645.4 714.08 643.08 711.85 641.84 708.75 641.08 707.37 641.73 706.74 641.17 707.26 638.03 700.4 636.44 701.73 634.91 703.57 634.88 704.24 634.03 705.83 634.87 708.45 634.57 711.94 635.67 714.54 635.33 715.87 636.3 719.63 636.05 722.32 634.43 723.05 636.38 724.15 636.38 725.18 637.52 725.86 636.53 727.26 636.45 727.54 635.36 729.13 635.37 730.49 634.39 731.91 635.65 731.58 636.35 732.63 635.88 734.53 637.7 733.7 638.57 735.45 638.6 736.13 639.92 735.68 641.62 736.38 641.3 738.91 644.02 739.94 643.78 739.03 644.61 741.96 647.25 743.29 646.46 743.39 647.01 744.86 647.06 748.14 649.01 749.36 648.74 750.39 649.93 751.43 649.62 753.19 651.3 754.77 651.18 756.59 652.44 757.3 651.63 758.92 651.93 761 650.96 765.17 652.07 767.25 651.06 769.55 651.55 770.29 650.53 772.51 651.44 773.91 650.47 778.01 653.48 781.96 651.81 782.76 650.64 784.04 650.72 784.81 651.75 784.21 653.96 785.04 654.93 784.74 656.31 784.06 656.38 785.14 658.01 784.5 658.87 785.6 659.38 786.29 661.74 787.6 661.13 788.31 661.51 788.82 663.48 792.72 661.63 793.92 662.02 795.05 663.62 798.09 663.99 800.49 663.31 800.12 667.35 801.51 666.75 805.55 669.24 808.23 668.51 808.77 669.05 809.19 667.99 810.79 668.11 811.81 666.45 813.34 667.43 813.04 669.96 814.77 670.76 815.96 670.35 817.79 672.92 819.03 673.25 820.03 675.31 821.53 674.08 823.76 675.97 825.78 675.31 827.08 677.32 829.13 677.87 829.68 678.86 825.66 680.77 825.66 682.53 823.96 682.93 823.56 684.29 826.57 687.51 826.2 688.76 827.15 689.31 825.98 690.13 826.38 691.53 827.88 691.81 829.51 693.58 829.68 698.27 830.87 701 829.17 702.43 826.85 702.93 821.96 700.38 818.71 700.66 817.92 702.61 814.37 704.84 813.94 704.15 810.89 703.73 811.36 705.33 812.12 705.46 811.83 706.95 808.77 705.83 807.76 706.46 807.91 707.18 806.85 706.64 806.2 707.62 806.71 708.29 807.65 707.83 806.54 709.31 803.95 709.88 802.39 709.25 799.25 710.67 794.48 710.1 794.11 712.37 790.56 712.89 788.2 716.05 786.86 716.25 785.69 714.92 784.2 715.77 783.9 714.86 783.16 715.28 782.53 713.78 783.32 712.43 781.53 711.86 784.41 708.26 782.07 706.84 784.15 705.76 782.75 703.76 780.48 703.76 780.89 700.52 772.35 708.39 771.3 708.57 770.56 707.11 768.65 707.74 768.1 704.64 770.05 703.31 770.3 702 768.56 703.62 767.63 701.46 763.61 705.41 759.04 704.67 755.87 707.34 756.19 705.64 754.87 704.92 755.05 704.1 754.13 704.78 751.6 703.73 751.57 702 751.46 702.53 749.78 701.62 749.51 700.71 745.35 699.12 743.66 699.69 741.51 699.66 741.05 698.97 738.44 699.18 735.68 696.76 729.42 696.3 729.33 695.39 727.42 695.11 726.02 695.28 725.85 696.7 724.03 696.04 721.04 696.99 722.13 697.78 721.21 699.26 723.84 701.91 721.7 703.45 720.36 703.17 718.51 704.64 713.54 701.63 708.81 701.91 706.97 702.3 706.76 703.56 705.48 703.99 705.88 705.15 701.99 704.93 700.93 706.95 700.31 706.64 700.47 707.46 699.86 707.32 698.51 710.07 698.71 711.33 696.89 712.6 697.21 714.37 696.41 714.62 694.05 713.04 694.5 711.83 693.22 709.33 690.18 710.68 690.64 708.86 689.21 707.82 689.98 705.41 689.32 705.44 688.93 704.36 687.79 704.67 687.73 703.93 687.16 704.42 685.62 703.54 685.2 700.43 683.92 700.34 682.28 703.17 680.91 702.71 680.57 701.19 679.83 701.12 680.87 699.83 682.53 700.11 682.87 697.78 682.18 696.56 683.57 692.77 680.2 690.02 680.67 688.11 683.55 688.37 684.98 687.08 684.72 686.24 685.85 686.17 686.66 687.89 688.44 687.94 692.65 684.86 694.14 685.01 693.57 686.61 694.58 687.22 697.81 685.29 698.6 687.99 700.77 685.5 702.38 684.49 703.16 684.86 707.02 681.06 711.43 680.12 711.77 681.42 712.91 682 714.64 678.46 713.7 676.3 715.14 675.3 714.13 670.53 710.32 668.88 710.9 668.16 707.79 667.17 706.05 667.43 706.14 664.61 703.18 663.99"/><polygon class="cls-1" points="968.06 382.27 969.4 381.83 971.88 382.81 974.52 382.13 975.79 382.66 981.12 381.27 982.2 381.29 982.26 382.13 983.31 381.55 983.42 383.89 984.14 384.03 984.11 385.87 984.95 386.62 983.97 386.79 984.3 387.39 983.25 388.16 985.47 389.97 984.27 391.83 986.66 393.14 987.07 394.5 988.49 394.29 989.29 395.81 990.96 395.95 991.79 398 993.27 397.63 994.72 398.59 995.48 397.77 996.45 398.14 999.02 397.52 999.39 398.08 1000.61 398.08 1001.94 396.11 1002.62 396.95 1004.39 396.91 1004.34 398.08 1005.36 399.1 1008.58 398.37 1009.28 398.88 1009.49 398.28 1010.62 398.91 1012.62 397.71 1012.27 397.12 1013.38 397.4 1015.48 396.55 1017.1 396.64 1017.25 400.01 1019.5 402.01 1022.41 403.26 1027.81 403.81 1028.74 402.91 1030.05 403 1031.45 402.06 1034.03 401.7 1038.56 403.89 1041.8 403.94 1041.95 405.08 1044.23 407.45 1042.34 409.98 1043.53 414.93 1045.98 413.42 1047.61 414.27 1048 413.59 1050.53 413.68 1053.19 414.86 1053.08 415.8 1051.45 416.11 1052.36 417.43 1051.91 418.17 1054.58 420.47 1054.29 421.92 1056 422.69 1056.57 422.1 1056.94 424.01 1057.85 424.56 1060.22 424.66 1064.03 423.37 1062.98 422.37 1064.08 421.7 1063.28 421.12 1063.97 420.42 1063.11 419.11 1065.33 419.33 1066.11 417.68 1069.24 416.06 1071.25 418.65 1071.17 422.88 1074.77 428.04 1075.52 428.13 1076.83 430.62 1076.26 431.03 1077.15 431.25 1079.19 434.78 1080.58 434.64 1081.7 435.26 1085.57 434.18 1085.77 430.12 1086.45 429.55 1088.5 429.86 1091.22 428.33 1095.9 428.3 1096.83 427.81 1096.71 426.7 1099.91 425.34 1101.09 426 1101.53 428.72 1102.86 429.01 1107.81 425.02 1107.55 426.93 1111.17 433.14 1113.34 433.28 1113.27 433.87 1116.98 435.55 1117.94 436.88 1120.99 435.58 1123.4 437.43 1124.57 436.8 1123.16 445.61 1113.2 446.17 1113.34 456.06 1100.73 444.56 1092.93 455.43 1062.76 463.86 1065.83 474.1 1048.97 473.4 1039.7 467.27 1026.26 481.07 1016.43 485.88 1014.74 486.11 1016.71 484.69 1017.88 482.78 1017.34 482.16 1019.04 480.85 1017.94 480.59 1018.24 479.56 1016.09 478.96 1015.99 477.6 1013.83 475.9 1013.93 474.93 1012.25 472.53 1012.39 471.17 1009.85 470.88 1010.25 469.43 1009.23 467.85 1010.17 466.14 1009.31 465.4 1013.04 462.06 1010.74 461.35 1009.6 462.06 1009.25 459.26 1008.63 458.69 1006.92 458.74 1007.09 456.58 1005.04 454.98 1005.44 452.91 1003.97 452.79 1003.11 451.63 1003.06 449.33 1000.92 449.23 1001.03 445.77 1000.39 444.95 1001.41 442.86 997.59 444.25 996.76 445.99 993.04 448.82 992.73 448.02 991.16 447.45 992.45 446.07 990.68 445.45 992.21 443.85 989.75 442.26 989.52 441.08 988.35 440.44 986.44 440.55 985.78 439.68 984.51 439.82 980.12 435.81 978.27 438 978.31 438.13 976.17 438.14 974.06 436.24 973.12 437.15 970.91 435.72 971.01 434.53 973.04 434.73 972.73 433.68 974.54 433.81 975.17 433.24 973.7 430.72 973.93 428.69 971.01 424.6 972.13 422.84 970.53 422.29 968.82 419.57 967.24 418.87 967.4 415.87 965.07 416.2 962.14 418.14 954.58 421.38 950.36 420.86 950.88 416.88 949.71 416.83 949.23 415.38 947.46 414.72 947.61 411.87 946.78 411.45 948.41 410.88 947.15 410.74 945.79 408.52 946.83 408.18 947.46 403.52 949.77 402.18 949.8 401.35 947.98 400.67 948.31 398.03 945.64 397.09 944.56 395.61 945.19 394.09 944.59 393.02 942.28 392.59 939.84 393.19 937.95 391.85 940.26 391.13 941.74 388.52 940.83 387.16 942.09 386.62 944.34 387.5 945.08 387.27 946.98 389.41 950.05 390.89 952.27 389.61 952.41 388.83 953.33 388.81 955.72 391.46 959.1 393.1 960.84 391.39 961.23 389.55 960.44 385.76 965.49 385.19 966.86 384.48 966.63 383.74 968.06 382.27"/><polygon class="cls-1" points="835.53 607.59 835.37 605.55 836.08 605.35 836.96 602.56 840.37 601.84 843.22 602.24 843.51 601.73 847.23 603.18 849.39 606.31 848.97 607.33 850.21 607.65 851.76 611.15 852.66 611.07 852.92 609.64 854.68 608.51 856.79 610.49 858.66 611 861.05 609.5 863.31 609.93 863.48 607.43 866.26 606.89 869.1 607.43 868.76 609.22 870.58 609.39 869.87 610.64 870.68 611.29 870.47 612.44 871.16 612.58 875.08 611.58 875.54 608.25 877.41 606.15 880.6 606.8 882.25 605.94 881.23 605.24 883.99 601.61 883.95 600.02 885.07 599.4 888.83 599.52 891.3 598.48 888.95 601.66 909.99 612.39 917.65 631.48 929.49 649.31 942.68 664.98 937.98 663.96 931.62 661.08 927.61 662.99 927.37 664.27 932.07 668.45 928.68 669.7 928.63 670.68 927.77 670.95 928.54 672.78 926.87 673.11 926.64 675.54 923.33 675.7 923.7 678.02 919.92 678.78 920 680.18 917.59 680.99 916.14 682.77 914.63 679.71 913.26 680.4 913.43 679.12 909.2 679.48 906.1 677.73 904.48 674.86 901.97 674.71 899.1 675.56 894.29 674.74 893.64 672.4 893.37 673.12 892.15 673.32 890.19 672.34 888.43 673.68 882.57 673.75 880.89 672.35 884.18 669.95 884.04 666.15 882.79 666.12 882.28 664.98 881.36 665.92 880.03 665.74 880.38 664.04 879.44 663.38 877.51 663.79 876.67 662.73 877.07 661.83 874.38 660.09 874.85 657.24 876.9 656.42 877.05 655.05 880.07 654.59 879.94 653.01 880.91 652.23 880.58 649.62 878.79 649.56 878.3 647.43 884.76 647.39 884.5 648.03 886.26 649 887.31 648.84 888.31 650.05 889.53 649.28 890.16 647.23 890.84 647.71 891.15 647.05 890.22 642.71 888.73 642.81 887 641.26 887 640.23 883.78 640.23 882.96 642.19 881.63 642.33 881.83 644.42 881.05 644.86 879.61 644.35 874.37 644.84 874.31 643.87 873.01 643.72 872.73 642.16 871.96 642.39 871.72 640.88 873.27 640.2 871.92 639.57 871.19 635.56 870.54 635.25 870.14 636.08 867.94 636.73 866.81 635.11 865.95 635.1 867.94 630.25 869.37 630.22 869.36 627.52 870.76 625.09 866.47 624.66 865.98 625.3 861.93 625.35 862.45 622.3 861.39 622.25 859.81 619.52 858.89 620.4 857.61 618.86 855.76 619.57 854.54 618.32 851.41 618.74 850.22 618.17 848.16 616.65 848.74 615.42 847.11 614.63 846.94 612.46 844.35 612.54 843.05 611.12 839.38 610.58 839.75 610.18 836.58 607.42 835.53 607.59"/><polygon class="cls-1" points="933.29 243.61 938.61 246.26 938.35 247.55 940.24 248.2 941.52 249.82 937.44 253.19 937.34 254.27 929.36 258.95 931.92 259.43 935.74 261.64 938.25 261.92 939.53 264.34 941.89 265.01 944.08 264.73 948.34 260.52 949.16 261.4 951.16 261.29 953.06 263.19 953.83 262.86 954.43 264.76 960.46 265.61 959.5 267.54 957.42 267.88 957.3 269.23 958.33 270.91 959.29 270.94 958.9 272.67 960.18 274.81 959.75 275.51 962.38 279.42 961.78 280.69 963.88 282.31 964.64 283.9 965.96 283.73 970.26 285.1 977.51 283.76 978.61 282.21 980.09 282.96 981.03 282.83 982.66 284.13 988.48 283.17 990.87 284.7 992.01 284.7 992.61 283.1 993.64 282.59 995.31 282.77 996.42 283.62 998.31 283.25 999.15 282.4 1001.18 282.52 1002.46 281.27 1002.18 280.3 1004.73 279.52 1005.01 277.73 1005.91 277.14 1006.19 277.65 1010.4 277.85 1017.17 283.53 1018.24 285.48 1020.23 285.88 1020.44 287.17 1021.89 287.84 1023.03 287.6 1022.66 288.35 1024.27 289.34 1023.73 289.88 1024.67 290.59 1023.08 292.41 1022.35 291.91 1022.22 292.72 1021.06 292.67 1021.6 293.18 1019.76 294.03 1020.01 294.64 1018.96 294.38 1018.28 294.8 1019.62 295.74 1018.93 296.2 1019.65 298.75 1016.76 299.76 1017.25 300.01 1015.86 300.8 1014.5 300.84 1014.74 301.61 1013.44 301.49 1014.23 302.45 1013.69 303.37 1012.48 303.69 1012.58 304.96 1010.03 306.16 1010.85 306.69 1008.98 306.93 1008.85 307.89 1010.08 308.26 1008.35 308.43 1009.2 309.31 1007.04 310.2 1008.32 311.88 1007.95 312.56 1006.96 312.69 1007.95 313.29 1007.83 315.85 1007.3 316.59 1006.58 315.71 1006.02 316.28 1008.09 317.33 1008.17 318.41 1007.53 318.42 1008.77 320.02 1007.86 325.17 1005.79 326.38 1004.25 325.41 1001.54 325.31 999.75 326.64 1000.07 327.97 998.62 330.37 997.79 330.36 997.68 331.9 996.74 332.25 996.03 333.72 995.77 335.95 994.2 337.57 994.88 339.24 994.13 340.93 995.37 342.43 994 345.81 992.36 346.55 993.44 345.02 992.15 344.54 992.42 343.51 990.97 342.66 990.13 341.15 990.33 338.84 989.38 337.93 984.1 340.92 975.89 347.41 970.68 348.95 968.17 352.11 956.28 357.26 954.86 359.76 952.78 360.96 957 365.27 961.63 366.62 960.15 368.12 960.69 368.83 962.49 368.47 962.54 371.23 964.84 373.15 967.75 372.65 968.78 370.59 971.67 370.28 972.02 368.95 970.73 368.35 970.79 367.55 972.58 368.72 974.92 368.57 973.92 370.57 974.38 371.13 975.49 371.11 975.78 369.81 976.34 369.88 976.59 370.8 975.85 371.11 976.96 371.39 976.25 373.72 969.97 374.29 968.92 375.66 965.59 375.09 965.56 375.81 964.67 376.01 964.93 378.94 968.03 382.29 966.6 383.75 966.81 384.49 965.44 385.19 960.41 385.77 961.18 389.57 960.8 391.4 959.05 393.11 955.68 391.46 953.29 388.83 952.36 388.83 952.22 389.61 949.99 390.89 946.92 389.41 945.02 387.27 944.28 387.5 942.03 386.62 940.77 387.18 941.68 388.53 940.2 391.14 937.88 391.85 939.78 393.21 942.22 392.61 944.53 393.05 945.13 394.1 944.5 395.64 945.58 397.11 948.25 398.05 947.92 400.7 949.74 401.36 949.71 402.2 947.4 403.55 946.76 408.21 945.72 408.55 947.07 410.77 948.34 410.91 946.7 411.48 947.54 411.89 947.38 414.76 949.16 415.41 949.63 416.86 950.8 416.91 950.3 420.87 954.52 421.41 962.06 418.17 964.99 416.21 967.32 415.9 967.15 418.9 968.72 419.59 970.45 422.3 972.05 422.87 970.93 424.62 973.86 428.7 973.63 430.74 975.09 433.25 974.46 433.84 972.65 433.71 972.98 434.75 970.94 434.55 970.85 435.73 973.07 437.18 974 436.26 976.11 438.17 978.25 438.17 978.27 438.22 978.3 439.98 977.39 440.39 977.64 441.67 975.92 445.42 973.95 444.62 969.4 445.57 968.12 446.79 968.04 448.19 969.17 448.69 965.86 449.78 962.32 449.92 961.27 450.75 959.18 449.58 957.22 449.78 955.77 448.75 952.36 448.36 951.73 448.79 952.16 449.72 953.89 450 952.59 451.63 949.02 450.71 948.26 451.48 946.16 450.77 943.82 451.49 942.36 454.53 939.5 456.09 938.44 456.31 937.1 454.78 934.95 455.18 932.02 455.95 930.87 457.49 926.35 459.93 923.33 459.62 918.27 461.82 917.48 461.58 915.19 462.78 915.34 464.4 911.73 465.87 907.95 470.71 906.63 470.21 906.86 468.39 903 462.81 903.1 460.64 901.22 460.78 898.41 459.82 896.36 457.26 895.57 458.32 892.12 459.57 891.25 460.64 894 463.03 893.57 464.85 893.01 466.05 892.44 470.57 893.49 472.5 894.62 472.87 893.6 473.56 894.45 475.01 892.53 476.41 892.95 477.85 892.64 477.46 891.27 478.12 890.51 478.75 885.63 478.06 884.49 478.4 883.58 476.95 881.85 477.92 877.42 477.34 874.25 477.99 873.92 475.92 872.38 475.01 873.27 474.28 873.21 473.24 871.44 472.8 869.67 469.83 870.48 468.43 872.63 469.37 873.69 467.75 872.24 466.36 873.11 465.2 871.76 464.37 872.75 464.11 872.23 463.15 871.27 463.24 871.02 464.17 869.39 464.09 870.14 463.23 868.91 462.67 869.19 461.47 866.52 460.1 868.29 459 867.31 458.06 867.51 457.12 863.27 452.88 859.47 453.81 858.39 452.94 858.1 453.45 856.9 453.4 856.75 454.53 855 455.81 849.47 455.39 846.14 456.9 846 460.96 843.48 460.96 845.41 462.64 845.32 464.43 842.68 465.14 842.4 466.06 838.95 466.19 837.84 465.2 835.9 465.93 836.14 464.92 834.56 464.69 832.43 466.13 832 467.44 830.32 467.64 830.21 468.93 829.21 469.21 828.06 469.04 826.63 465.93 824.84 466.02 821.33 468.19 815.23 470.44 814.8 471.15 815.85 472.26 814.68 472.65 814.17 472.08 813.45 472.99 810.95 472 806.06 472.73 806.83 470.83 806.28 468.72 807.69 468.1 806.8 464.92 805.27 463.85 806.21 462.44 805.26 461.61 803.99 462.77 800.36 462.21 799.09 462.69 798.87 465.45 795.76 466.31 793.32 468.69 794.05 474.36 789.7 474.1 786.66 475.7 788.02 476.8 787.66 478.69 789.5 479.71 788.88 480.71 787.52 480.9 785.66 482.3 788.65 484.52 790.61 486.97 790.01 487.58 791.8 489.3 790.47 489.72 790.38 493.36 788.42 493.53 786.52 494.75 785.18 493.54 780.6 496.84 775.87 497.37 774.59 495.58 769.5 496.66 767.62 497.26 766.75 499.57 764.84 500.34 759.22 497.8 756.24 498.69 749.84 507.36 748.96 511.06 745.66 511.54 743.53 510.64 739.35 510.47 739.18 512.97 737.63 514.65 733.96 514.85 733.45 515.84 732.63 515.92 731.91 514.81 733.65 512.36 733.28 511.68 728.34 513.34 725.28 517.43 723.35 518.14 721.42 515.53 719.43 515.96 718.85 516.9 716.01 514.39 714.14 514.02 713.8 515.18 715.47 517.48 710.43 519.36 708.65 521.14 705.75 521.72 704.98 524.32 702.9 526.62 701.81 526.28 700.06 526.8 699.56 528.56 698.18 528.7 698.51 530.4 697.07 530.24 694.85 531.55 694.36 533.06 692.79 533.76 691.26 535.84 690.47 538.89 692.86 540.73 692.86 541.78 690.64 543.93 688.78 542.1 687.76 542.04 688.39 542.67 687.51 543.5 687.54 548.53 683.47 549.18 683.5 548.51 682.58 548.41 679.48 548.76 678.52 549.5 677.29 548.87 675.04 549.81 672.65 548.88 671.71 546.43 665.59 544.85 660.85 543.39 661.24 542.45 659.29 540.63 656.15 539.34 652.97 540.03 649.2 539.34 642.98 536.23 646.47 531.92 647 528.35 652.29 523.24 652.03 521.81 649.84 521.19 648.7 515.92 645.08 515.9 642.83 517.34 638.94 517.72 638.89 520.16 636.18 520.03 634.9 523.37 632.74 524.83 633.13 525.69 631.54 527.27 630.44 530.13 629.98 534.34 630.69 537.17 629.13 538.46 628.84 539.79 630.24 542.32 628.7 546.28 626.36 546.7 625.56 548.24 621.67 548.02 618.22 548.65 613.68 551.23 608.36 551.97 605.7 551.34 602.47 551.78 602.2 552.72 599.93 553.48 597.96 553.87 588.04 546.54 583 545.34 582.06 540.62 585.6 539.37 584.43 536.04 583.03 534.48 592.07 529.87 595.1 525.09 597.88 524.12 598.49 521.19 595.5 517.23 596.26 514.88 593.35 513.98 591.32 514.1 582.04 516.29 575.04 521.02 567.36 519.48 564.4 518.08 559.44 519.7 551.93 521.02 557.09 525 552.87 528.35 552.67 529.21 551.17 529.5 549.21 528.96 548.06 529.55 546.38 528.32 542.43 527.22 542.51 525.92 540.78 525.48 539.47 523.87 540.32 522.53 536.34 523.83 534.86 522.09 533.16 522.76 533.07 515.28 526.28 515.27 526.32 513.68 522.78 512.93 521.43 509.66 516.8 508.62 511.96 505.8 505.88 505.99 509.12 502.33 514.72 499.46 516.92 495.87 521.21 491.92 520.95 489.56 518.36 486.43 510.25 485.48 508.12 487.1 500.53 486.79 494.49 488.96 490.19 493.05 482.55 493.39 484.76 487.34 484.44 486.45 477.65 482.1 477.05 482.3 470.02 475.25 474.46 471.35 461.69 449.75 481.12 450.64 505.44 453.48 531.42 450.76 550.65 453.69 579.56 465.53 603.18 465.53 611.89 471.52 634.6 461.07 666.16 454.32 695.42 453.62 718.27 446.72 732.27 436.34 745.92 429.79 742.79 423.38 736.52 415.86 746.76 403.32 777.83 409.03 797.34 398.72 827.09 391.13 841.44 378.24 855.16 372.74 883.51 370.16 898.98 372.32 901.07 365.42 883.38 351.77 867.7 345.57 852.72 352.74 833.42 349.75 822.42 352.19 817.33 344.24 840.67 310.11 864.08 317.42 891.66 305.09 891.46 296.52 908.86 276.27 919.95 269.63 919.74 258.9 909.59 253.82 925.1 244.55 933.29 243.61"/><polygon class="cls-1" points="599.96 553.5 602.23 552.75 602.5 551.81 605.73 551.35 608.41 552 613.73 551.24 618.26 548.68 621.72 548.05 625.6 548.24 626.4 546.71 628.75 546.31 630.3 542.33 628.89 539.82 629.2 538.48 630.75 537.2 630.04 534.36 630.51 530.15 631.6 527.28 633.19 525.69 632.8 524.85 634.96 523.38 636.26 520.03 638.96 520.17 639 517.72 642.89 517.35 645.15 515.92 648.76 515.92 649.9 521.21 652.09 521.82 652.37 523.26 647.08 528.36 646.54 531.94 643.06 536.24 649.27 539.34 653.07 540.05 656.24 539.36 659.39 540.65 661.33 542.47 660.95 543.41 665.68 544.85 665.15 546.65 662.61 546.96 662.15 548.28 660.3 548.44 660.33 549.19 658.83 549.95 660 551.04 658.43 552.48 657.95 554.71 658.83 557.24 658.29 557.41 659.4 558.54 658.83 559.8 658.23 559.28 658.26 560.22 656.1 558.92 653.22 559.66 650.91 558.94 650.8 559.8 648.72 558.78 648.08 560.05 645.28 559.2 645.83 562.56 644.71 562.95 643.89 562.22 645.03 563.84 645.94 564 646.02 567.22 644.77 566.66 643.55 567.08 641.93 569.21 642.19 570.32 640.39 570.16 643.47 571.95 643.03 575.99 644.11 576.24 644.49 575.54 648.27 577 649.55 576.75 651.23 578.89 651.86 578.64 651.88 581.44 650.88 582.19 651.71 582.53 650 583.36 651.49 584.95 649.33 586.77 648.18 586.52 647.85 587.39 644.03 586.18 642.05 587.16 643.21 593.66 640.54 596.05 638.35 594.03 638.08 592.66 636.9 592.15 635.63 593.62 634.59 592.29 635.04 591.69 631.59 592.58 631.57 591.61 634.56 591.1 634.45 591.77 635.19 590.87 631.38 589.9 630.4 591.06 629.94 589.52 627.48 587.26 628.59 586.38 626.54 586.18 624.99 587.26 624.75 586.52 622.81 586 622.19 584.71 621.21 585.01 621.65 584.01 620.44 583.32 620.33 580.91 622.24 579.28 623.52 579.23 623.84 578.35 623.2 575.51 621.84 574.2 620.76 571.37 618.77 570.7 619.16 570.09 617.92 567.36 620.45 565.85 619.33 564.3 617.66 563.97 617.29 562.05 613.47 560.91 611.06 557.57 609.83 556.98 608.33 557.95 606.73 557.43 606.1 556.5 608.35 555.25 607.62 554.74 608.86 553.63 599.96 553.5"/><polygon class="cls-1" points="379.24 519.66 381 520.07 388.74 518.68 389.83 517.38 393.87 518.04 396.51 517.49 397.33 518 399.75 517.85 404.62 516.41 405.15 517.04 411.96 517.03 413.97 518.35 417.67 518.31 422.23 519.57 424.85 519.06 427.3 521.62 430.28 522.75 432.58 525.31 434 525.85 434.23 525.42 436.69 527.48 439.5 528.01 440.49 529.86 441.38 529.36 443.08 530.4 444.87 530.04 448.86 532.03 449.25 533.73 457.36 535.84 457.99 530.95 456.96 530.35 456.91 529.27 457.9 528.73 457.99 525.91 457.31 525.34 458.1 521.95 457.05 520.94 458.64 519.06 464.88 519.77 471.36 522.81 471.79 523.72 477.91 525.75 479.33 526.96 482.88 523.89 483.26 522.29 485.08 522.44 486.52 523.92 488.95 524.29 492.44 521.38 493.56 521.38 497 523.78 497.53 523.33 499.18 523.95 498.42 525 504.13 528.47 505.81 530.67 506.96 530.5 507.44 531.8 510.31 533.94 519.96 538.2 519.72 536.02 518.17 534.45 518.76 532.88 520.83 533.56 523.05 536.21 528.15 537.61 528.87 540.4 537.96 543.49 539.9 545.26 550.05 550.35 550.79 551.57 552.34 551.86 552.95 548.76 555.09 546.89 555.49 549.93 557.03 550.67 555.8 552.6 559.61 553.6 562.3 555.39 562.57 556.36 563.91 556.18 567.05 558.58 565.05 560.09 564.42 562.3 569.66 566.34 567.16 567.53 567.89 568.67 569.57 569.27 571.79 574.56 576.23 577.15 574.86 577.35 572.7 579.51 574.39 580.43 574.04 584.4 570.82 583.89 568.97 585.06 570.31 588.59 569.6 590.38 565.99 589.65 563.89 592.26 561.33 592.26 561.63 594.03 560.95 594.65 562.32 595.13 563.17 597.26 562.12 597.47 560.99 599.48 558.06 600.29 553.93 602.95 553.88 605.6 552.48 604.98 550.08 606.37 552.17 607.87 553.84 606.92 554.16 608.51 558.53 610.13 560.45 613.06 559.1 613.06 558.39 614.77 556.8 614.45 554.56 617.93 552.64 617.07 550.45 618.52 548.75 617.66 548.1 616.45 542.32 615.2 541.12 614.2 537.09 613.69 535.78 612.72 534.07 612.65 532.54 613.82 531.53 616.53 535.85 621.9 539.07 623.1 539.9 624.1 539.36 626.65 540.76 626.18 543.8 626.83 544.46 625.95 545.87 625.78 547.56 626.37 548.35 629.7 550.38 629.67 551.16 628.79 551.17 630.56 549.94 630.72 548.87 632.41 548.75 633.14 550.38 634.02 548.69 637.19 545.28 634.97 543.8 635.07 543.63 636.45 542.63 635.25 539.11 636.44 538.42 641.11 540.65 642.75 539.87 645.43 538.36 646.48 538.28 645.75 537.36 645.58 534.72 647.08 529.85 645.6 530.55 646.92 529.48 646.74 529.57 648.65 526.64 650.86 525.33 649.59 527.72 647.86 525.71 645.34 524.4 644.12 523.2 644.76 521.67 644.38 520.73 647.05 518.9 646.4 518.3 645.77 519.22 644.61 518.71 642.16 517.11 641.37 517.11 640.48 515.89 640.48 514.52 638.29 513.9 640.55 512.02 640.46 512.48 641.85 511.56 644.84 504.13 641.13 502.38 641.59 500.78 638.67 494.23 636.33 493.41 634.29 492.48 633.88 492.88 632.35 491.94 631.33 492.07 630.05 490.36 628.87 489.72 627.33 490.54 626.77 486.7 622.9 485.64 622.51 482.71 623.04 482.72 621.73 478.08 620.96 473.16 622.64 472.64 622.07 473.35 620.49 471.1 619.71 470.5 621.54 465.71 622.1 465.36 623.21 466.5 626.06 466.04 627.33 468.26 628.1 469.01 630.35 473.13 631.27 470.32 632.74 469.82 634.4 467.63 636.14 468.74 638.53 467.9 638.91 468.23 639.54 465.68 640.11 465.08 641.13 466.46 645.15 472.36 648.54 471.24 649.56 465.33 648.56 464.73 650.15 466.21 652.01 465.11 652.21 466.25 652.8 463.73 653.25 463.25 655.2 464.11 657.18 462.37 656.64 462.68 657.64 461.37 658.18 457.25 657.5 457.4 658.81 456.14 658.43 455.32 659.18 452.76 658.26 454.41 660.86 453.46 661.66 455 664.1 454.38 665.18 452.99 665.06 451.92 664.05 449.32 664.15 447.29 662.9 444.85 659.92 442.34 660.83 442.65 661.65 441.6 661.65 441.29 662.48 442.99 663.62 443.59 664.9 442.89 666.46 443.67 666.78 442.52 667.69 440.63 664.36 436.11 664.19 435.11 665.01 433.83 663.41 431.41 662.99 429.32 663.64 426.41 659.51 427.78 658.61 427.21 657.96 427.97 657.42 427.61 655.71 426.1 655.4 425.16 653.86 420.75 653.96 419.5 652.71 417.3 651.98 417.85 651.27 417.14 649.85 415.57 649.42 414.44 648.48 414.94 648.14 411.7 645.75 408.45 647.79 407.3 647.15 406.75 648.67 403.63 648.76 402.32 650.36 400.77 649.65 399.89 650.13 398.95 649.33 396.94 649.61 396.03 648.07 394.26 647.56 392.95 647.66 390.33 649.54 389.17 647.97 387.6 648.56 385.01 645.95 381.42 646.57 380.44 644.35 377.68 645.24 374.2 643.93 373.29 644.78 369.6 643.95 365.87 644.81 364.69 644.23 365.19 642.54 363.5 641.62 360.07 642.9 357.67 640.45 354.54 639.52 350.5 637.16 348.48 634.54 349.31 633.8 348.77 633.2 345.56 633.08 344.47 634.73 340.89 634.71 338.05 637.25 335.37 636.67 331.3 634.26 328.99 634.13 326.4 631.53 326.23 629.62 321.49 627.14 321.89 625.94 320.06 625.09 320.34 623.81 317.67 622.53 314.8 618.98 315.76 617.55 318.07 616.76 318.38 614.22 319.21 613.48 317.86 612.21 317.78 607.83 316.68 607.43 316.44 605.95 319.13 604.13 317.86 602.19 313.69 602.59 313.72 598.4 312.37 597.98 311.07 596.13 312.56 595.11 311.96 595 311.95 593.52 315.67 592.45 317.1 591.3 315.9 590.01 317.1 589.13 316.34 587.93 317.78 584.07 312.56 583.76 310.45 582.7 310.08 581.22 310.58 580.4 312.04 580.7 316.51 579.57 320.78 579.71 321.91 575.81 324.38 576.46 324.24 577.12 326.29 578.01 335.02 578.68 338.18 580.8 339.87 580.45 340.72 579.15 343.16 579.38 343.05 577.04 342.02 576.18 342.63 575.39 341.66 574.79 341.77 570.8 335.97 569.75 335.48 567.91 336.31 567.08 335.66 565.83 338.25 563.38 341.45 563.26 344.58 561.27 347.26 561.24 346.63 558.85 344.84 557.67 342.9 552.69 340.01 552.49 337.28 549.49 330.01 546.68 330.44 546.14 329.62 544.63 331.13 543.27 324.69 534.9 324.67 534 329.93 532.79 330.62 531.62 333.52 530.75 333.83 529.33 336.67 529.52 343.47 528.56 349.73 526.57 358.05 525.26 361.83 523.8 368.23 522.9 370.45 520.87 379.24 519.66"/><polygon class="cls-1" points="665.68 544.85 671.8 546.45 672.74 548.88 675.13 549.83 677.38 548.88 678.62 549.52 679.56 548.76 682.67 548.41 683.6 548.51 683.57 549.18 687.64 548.53 687.61 543.52 688.48 542.67 687.85 542.04 688.87 542.1 690.74 543.93 692.96 541.78 692.96 540.73 690.58 538.89 691.35 535.84 692.89 533.76 694.45 533.06 694.95 531.57 697.17 530.26 698.6 530.4 698.27 528.7 699.63 528.58 700.16 526.8 701.88 526.29 702.99 526.63 705.08 524.34 705.85 521.72 708.75 521.16 710.52 519.36 715.55 517.49 713.88 515.19 714.22 514.04 716.09 514.39 718.92 516.92 719.49 515.98 721.5 515.55 723.43 518.17 725.35 517.44 728.42 513.36 733.37 511.69 733.73 512.39 732 514.84 732.71 515.95 733.52 515.86 735.73 517.18 734.91 517.64 733.26 521.98 730.43 523.47 731.18 525.35 728.64 529.78 729.3 531.12 728.45 533.43 726.66 533.7 724.21 536.5 722.72 536.53 722.35 538.14 721.22 538.91 721.44 543.16 725.99 547.16 725.04 548.04 726.89 549.15 726.17 549.44 726.74 551.12 725.92 552.91 723.86 553.48 723.73 554.67 725.09 555.16 724.8 556.38 721.67 559.82 719.45 561.14 720.17 561.67 718.63 561.51 719.73 562.5 718.77 564.26 719.62 564.54 719.63 565.68 718.83 566.26 720.2 567.05 719.88 567.94 719 568.04 721.17 569.95 720.09 578.01 723.29 588.39 716.7 601.22 716.89 604.81 716.16 606.55 717.13 608.03 718.85 608.3 719.2 609.08 718.43 610.15 719.71 612.06 720.7 611.97 721.08 613.49 719.66 614.4 719.94 615.22 723.87 616.76 722.75 619.37 724.5 620.91 722.95 621.93 723.18 622.75 726.48 623.87 727.56 626.32 730.97 628.28 731.4 632.8 730.49 634.39 729.13 635.37 727.54 635.36 727.26 636.45 725.86 636.53 725.18 637.52 724.15 636.38 723.05 636.38 722.32 634.43 719.63 636.05 715.87 636.3 714.54 635.33 711.94 635.67 708.45 634.57 705.83 634.87 704.24 634.03 703.57 634.88 701.73 634.91 700.4 636.44 707.26 638.03 706.74 641.17 707.37 641.73 708.75 641.08 711.85 641.84 714.08 643.08 714.34 645.4 715.36 646.49 714.54 647.25 713.09 646.82 711.68 648.16 709.59 647.28 703.92 647.26 704.26 648.28 702.12 650.36 701.5 652.95 703.63 654.77 703.98 656.78 703.3 658.27 704.15 659.86 703.26 660.69 704.29 662.42 703.18 663.99 697.49 664.27 697.23 662.61 695.7 662.17 692.54 659.46 689.69 658.87 686.9 656.68 685.4 656.64 682.49 654.7 681.75 653.54 678.75 654.14 677.03 653.4 676.06 654.39 672.88 654.51 671.94 655.93 669.47 654.77 665.73 650.99 663.12 651.35 661.75 650.65 661.25 648.43 660.25 648.31 658.17 650.89 657.38 650.7 654.55 648.5 654.82 646.17 653.26 644.76 648.65 645.46 648.61 644.6 647.87 644.58 641.55 646.86 640.16 645.86 635.66 644.72 634.67 643.88 635.29 642.99 634.31 641.97 633.61 642.71 630.04 642.88 629.39 644.26 628.61 643.88 625.56 645.24 623.66 641.16 626.37 641.71 630.74 640.55 631.82 639.49 632.09 636.62 631.42 636.53 632.13 635.65 632.7 636.55 632.74 635.42 629.44 634.34 627.75 632 630.06 632.01 630.38 629.81 632.63 627.59 635.44 627.57 635.53 628.36 637.06 628.79 639.03 627.73 641.82 627.39 642.32 629.05 643.63 629.7 644.88 628.08 643.94 625.98 642.81 625.67 642.38 624.01 643.03 622.98 641.59 622.05 643.2 617.95 644.97 617.26 644.15 615.28 643.09 615.05 643.67 614.33 646.53 615.19 647.41 612.75 645.99 612.38 644.55 610.5 642.5 609.72 640.1 609.88 639.53 608.75 642.38 607.59 642.13 606.52 644.18 605.41 644.52 604.18 642.97 600.56 644.14 598.91 651.35 598.77 654.62 600.2 654.71 601.19 656.24 601.82 656.81 602.9 658.65 601.84 663.26 602.33 664.04 601.16 665.37 602.01 668.61 601.45 669.61 600.65 665.62 595.87 666.85 595.73 667.16 594.7 671.63 595.91 675.83 594.6 677.06 595.47 679.13 594.63 681.95 595.08 684.24 593.97 684.51 589.9 682.63 588.08 682.15 583.44 683.69 582.22 685.09 582.22 685.79 580.8 686.25 578.54 685.03 576.13 686.28 574.05 682.41 571.98 680.79 572.75 679.15 570.43 676.6 570.13 676.63 568.95 675.33 570.33 673.17 569.62 672.29 568.84 672.66 568 671.43 568.48 670.43 566.46 666.17 565.08 663.44 565.15 662.35 563.64 658.91 563.44 658.26 560.22 658.23 559.28 658.83 559.8 659.4 558.54 658.29 557.41 658.83 557.24 657.95 554.71 658.43 552.48 660 551.04 658.83 549.95 660.33 549.19 660.3 548.44 662.15 548.28 662.61 546.96 665.15 546.65 665.68 544.85"/><polygon class="cls-1" points="551.16 628.79 551.65 627.37 552.37 627.5 554.36 630.78 553.01 633.31 551.06 634.43 552.36 635.51 552.11 637.02 553.08 637.27 555.16 635.53 556.88 635.64 557.6 634.2 559.44 635.11 559.78 633.4 559.03 632.91 560.64 631.27 562.47 631.8 564.85 630.41 564.22 628.2 562.09 627.39 562.16 625.17 561.25 625.57 561.73 624.61 560.14 624.06 560.5 622.87 559.16 620.94 560.79 620.18 563.08 620.54 563.86 618.26 568.35 618.4 567.38 616.87 569.04 616.1 569.8 614.85 571.99 614.7 572.91 613.88 574.02 614.33 574.66 616.19 577.12 616.56 578.31 618.2 577.43 618.86 578.02 619.89 577.31 620.73 578.53 621.93 577.97 623.67 581.81 624.97 583.41 624.83 584.86 623.67 584.79 626.18 586.47 625.57 589.97 626.62 595.38 626.08 597.78 627.57 597.51 628.91 598.76 631.6 600.24 632.92 602.86 633.18 602.3 633.88 600.44 633.54 601.84 637.26 601.02 638.57 602.8 639.09 601.62 640.48 600.08 640.54 600.38 642.68 605.59 644.63 606.87 645.92 608.05 645.71 608.84 646.41 610.68 645.97 611.73 647.2 614.78 646.26 616.23 647.29 622.84 644.47 621.36 641.84 622.5 640.8 623.66 641.16 625.56 645.24 628.61 643.88 629.4 644.26 630.04 642.88 633.61 642.71 634.31 641.97 635.29 642.99 634.67 643.88 635.66 644.72 640.16 645.86 641.55 646.86 647.87 644.58 648.61 644.6 648.65 645.46 653.26 644.76 654.82 646.17 654.55 648.5 657.38 650.7 658.17 650.89 660.25 648.31 661.25 648.43 661.75 650.65 663.12 651.35 665.73 651 669.47 654.77 671.94 655.93 672.88 654.51 676.06 654.39 677.03 653.4 678.75 654.14 681.75 653.54 682.49 654.7 679.74 655.16 681.11 657.44 679.13 657.3 679.51 659.01 677.55 659.38 679.25 661.45 682.73 663.41 682.87 665.07 681.76 666.09 680.8 665.89 678.8 668.26 676.21 668.56 676.81 669.16 675.44 670.89 675.95 671.72 672.93 673.34 672.91 673.89 674.11 674.09 672.63 676.04 673.5 677.16 671.32 678.55 671.17 679.64 672.03 680 669.92 681.91 667.82 681.79 666.93 680.4 665.36 681.82 664.27 681.05 662.87 681.28 661.16 683.16 662.84 685.2 657.41 693.18 654.31 696.44 653.3 696.87 652.4 695.96 651.45 696.91 648.02 697.01 645.45 693.26 645.93 692.35 644.41 691.66 642.13 691.86 641.79 692.74 639.33 693.01 638.09 693.97 636.21 691.39 631.32 689.64 630.43 689.98 630.08 689.17 628.39 690.59 628.15 692.61 626.05 692.24 626.73 693.54 624.43 694.22 628.42 697.05 628.13 700.38 625.83 700.8 624.97 702.76 623.32 703.04 623.15 703.85 622.04 703.76 620.59 705.5 620.07 705.24 620.24 708.34 621.45 708.25 622.41 709.11 622.09 710.28 622.84 711.33 626.68 712.07 627.48 711.38 627.98 714.97 629.6 718.13 631.54 718.87 633.16 717.32 634.33 717.93 634.38 718.75 637.66 719 640 724.01 639.91 725.56 640.77 726.09 640.76 727.03 639.68 726.78 632.9 721.74 631.29 723.58 631.35 724.7 628.35 724.45 626.05 726.92 626.42 730.24 628.12 731.1 629.1 729.87 629.89 730.38 631.23 731.56 631.15 733.91 632.51 733.58 634.01 734.25 634.24 733.58 636.34 733.12 638.25 734.49 638.45 736.02 639.68 736.84 639.96 739.75 637.21 741.06 634.93 740.57 626.31 742.94 623.41 740.69 619.87 742 620.04 739.92 618.91 739.69 618.56 738.55 619.45 737.7 619.17 736.37 617.78 736.51 617.55 735.11 614.88 734.46 613.5 735.15 611.59 738.09 605.8 739.35 604.32 738.58 600.45 735.43 602.03 735.17 603.07 734.01 603.4 732.86 602.26 732.53 603.41 731.5 602.23 731.07 601.75 729.85 600.28 730.1 599.47 728.68 599.31 726.07 601.39 725.49 602.67 724.13 600.45 724.28 599.28 723.39 596.4 724.55 593.54 724.62 591.46 723.4 590.29 726.21 591.88 730.44 588.84 732.38 587.36 731.27 583.77 733.89 583.63 735.82 584.54 735.76 584.88 736.93 585.96 736.79 584.86 737.93 584.62 739.95 580.39 743.5 580.64 744.68 579.39 744.64 577.71 747.52 574.76 748.51 573.88 747.64 572.74 749.88 573.24 753.34 572.47 755.14 576.14 764.72 574.87 765.72 574.69 768.29 572.57 768.03 568.55 771.05 567.22 770.24 567.76 768.57 566.31 768.03 560.45 770.84 557.42 773.75 554.07 772.95 552.36 774.23 550.48 770.91 549.49 770.4 548.1 771.04 547.55 769.62 548.86 769.11 548.44 767.38 543.77 764.31 543.77 763.53 545.13 763.33 545.53 762.02 544.93 761.41 546.1 760.27 544.88 759.92 545.05 760.86 543.72 761.09 543.21 757.95 541.33 757.58 541.27 756.65 538.87 755.23 539.31 751.76 536.99 751.44 537.19 750.13 534.84 746.57 533.76 746.55 533.72 743.9 532.74 743.73 532.99 742.57 531.93 742.47 530.45 740.14 530.01 738.01 529.03 737.96 527.27 739.97 524.99 738.87 522.94 741.75 522.58 738.98 519.95 738.19 520.22 737.24 518.16 735.56 517.05 733.44 517.28 732.78 519.95 732.04 520.04 730.05 517.74 729.08 518.02 727.89 516.43 727.08 515.48 724.99 514.39 724.58 513.33 725.18 513.32 723.42 511.54 722.47 511.08 720 509.23 720.62 507.23 725.02 504.5 725.97 505.31 731.04 504.83 733.27 503.19 732.13 500.49 728.31 500.64 724.95 499.21 720.68 499.3 712.12 496.99 703.95 498.5 698.93 497.94 696 496.82 694.51 495.23 684.19 496.35 682.81 492.84 680.25 493.19 678.01 489.35 674.48 489.99 671.61 491.04 671.66 492.82 673.26 494.83 670.84 489.72 666.71 485.7 662.04 486.04 658.55 482.01 654.29 481.43 651.78 477.02 649.61 472.36 648.54 466.46 645.15 465.08 641.13 465.68 640.11 468.23 639.54 467.9 638.9 468.74 638.53 467.63 636.15 469.82 634.4 470.33 632.74 473.13 631.27 469.01 630.35 468.26 628.1 466.04 627.33 466.5 626.06 465.36 623.21 465.71 622.1 470.5 621.54 471.1 619.71 473.35 620.49 472.64 622.07 473.16 622.64 478.08 620.96 482.72 621.73 482.71 623.04 485.64 622.51 486.7 622.9 490.54 626.77 489.72 627.33 490.36 628.87 492.07 630.05 491.94 631.33 492.88 632.35 492.48 633.88 493.41 634.29 494.23 636.33 500.78 638.67 502.38 641.59 504.13 641.13 511.56 644.84 512.48 641.85 512.02 640.46 513.9 640.55 514.52 638.29 515.89 640.48 517.11 640.48 517.11 641.37 518.71 642.16 519.22 644.61 518.3 645.77 518.9 646.4 520.73 647.05 521.67 644.38 523.2 644.76 524.4 644.12 525.71 645.34 527.72 647.86 525.33 649.59 526.64 650.86 529.57 648.65 529.48 646.74 530.55 646.92 529.85 645.6 534.72 647.08 537.36 645.58 538.28 645.75 538.36 646.48 539.87 645.43 540.65 642.75 538.42 641.11 539.11 636.44 542.63 635.25 543.63 636.45 543.8 635.07 545.28 634.97 548.69 637.19 550.38 634.02 548.75 633.14 548.87 632.41 549.94 630.72 551.17 630.56 551.16 628.79"/><polygon class="cls-1" points="932.21 668.51 933.87 668.88 942.55 674.66 942.45 678.71 930.91 684.24 930.74 683.16 929.87 682.42 928.22 682.43 927.71 681.14 925.46 681.6 925.65 678.21 923.71 678.01 923.34 675.68 926.66 675.53 926.89 673.09 928.55 672.77 927.78 670.95 928.65 670.67 928.69 669.68 932.09 668.43 932.21 668.51"/><polygon class="cls-1" points="791.86 489.3 793.17 491.45 794.76 492.14 794.5 494.16 795.37 496.44 797.95 496.38 799.57 497.18 798.04 498.57 794.22 499.03 793.8 499.82 791.75 500.24 790.78 500 790.79 502.18 789.91 502.49 789.14 501.13 788.67 502.76 787.51 503.38 789.67 503.72 790.39 505.17 793.54 506.17 796.9 506.17 797.78 507.61 797.19 510.37 800 512.37 797.39 517.23 797.32 518.32 798.2 518.91 796.64 519.74 796.08 521.31 794.71 520.62 793.09 522.04 791.37 522.01 790.09 520.36 787.06 521.76 784.74 523.58 784.89 525.23 786.43 526.33 786.12 527.7 785.4 527.61 784.63 528.81 783.65 528.65 783.59 529.7 781.7 529.87 780.71 531.58 781.13 533.37 780 534.98 780.37 537.17 781.11 537.97 786.01 539.34 785.66 540.19 786.89 541.19 788.74 545.88 790.13 546.83 789.13 548.11 790.58 547.82 791.97 548.72 787.05 557.18 784.72 559.02 785.18 564.24 784.38 564.69 783.35 564.1 783.04 565.89 778.83 567.5 779.65 567.54 779.09 568.79 780.37 569.13 781.22 570.3 780.57 571.6 783.56 573 783.99 574.24 782.85 577.33 783.35 577.69 782.58 578 783.52 578.55 782.5 578.83 782.64 580.54 783.39 580.79 783.15 581.48 782.19 581.43 782.56 584.38 780.97 584.75 781.94 588.27 780.49 588.05 779.45 590.33 775.62 591.37 775.61 592.37 773.83 592.04 772.06 594.14 769.62 593.8 769.76 594.71 768.36 595.78 766.18 595.64 765.03 596.67 763.49 596.28 763.01 595.44 762.35 596.32 758.06 595.81 756.79 596.41 755.85 596.32 755.88 595.68 754.51 596.13 751.5 595.16 750.93 599.97 749.42 599.04 746.94 599.22 746.46 600.02 743.92 600.79 743.95 601.63 741.96 603.55 735.22 604.66 733.85 604.33 730.15 606.35 729.42 605.8 728.88 607.17 726.09 607.29 724.74 608.5 718.85 608.3 717.13 608.03 716.16 606.55 716.89 604.81 716.7 601.22 723.29 588.39 720.1 578.01 721.17 569.95 719 568.04 719.88 567.94 720.2 567.05 718.83 566.26 719.63 565.68 719.62 564.54 718.77 564.26 719.72 562.5 718.63 561.51 720.17 561.67 719.45 561.14 721.67 559.82 724.8 556.38 725.09 555.16 723.73 554.67 723.86 553.48 725.92 552.91 726.74 551.12 726.17 549.44 726.89 549.15 725.04 548.04 725.99 547.16 721.44 543.16 721.22 538.91 722.35 538.14 722.72 536.53 724.21 536.5 726.66 533.7 728.45 533.43 729.3 531.12 728.64 529.78 731.18 525.35 730.43 523.47 733.26 521.98 734.91 517.64 735.73 517.18 733.52 515.86 734.03 514.87 737.7 514.67 739.26 512.99 739.43 510.49 743.61 510.64 745.74 511.54 749.04 511.07 749.9 507.38 756.3 498.71 759.28 497.8 764.9 500.34 766.82 499.59 767.66 497.27 769.56 496.67 774.65 495.58 775.93 497.37 780.66 496.84 785.24 493.54 786.59 494.75 788.48 493.53 790.44 493.36 790.55 489.72 791.86 489.3"/><polygon class="cls-1" points="855.22 499.17 858.38 499.16 860.31 501.67 862.31 502.15 862.22 503.21 863.3 503.41 862.76 504.37 861.68 503.84 858.41 503.94 857.82 505.82 858.52 508.01 860.82 510.07 859.94 511.48 861.34 511.74 861.7 512.51 862.73 511.4 866 511.81 864.79 515.33 866.17 515.13 867.51 515.96 868.36 518.08 857.72 526.82 858.83 529.69 858.49 530.58 852.81 531.35 852.24 530.23 849.82 531.01 848.2 528.78 846.2 528.99 844.64 528.04 842.98 528.04 842.11 524.29 843.07 522.46 845.9 521.76 846.48 520.34 844.98 519.09 845.64 516.55 845.09 516.01 844.42 516.36 845.02 514.72 843.87 514.11 843.92 511.17 845.77 509.49 846.81 509.21 847.31 510.54 850.79 510.83 851.59 508.02 850.82 507.05 852.81 506.57 850.82 505.97 850.39 505.11 851.61 501.98 855.22 500.28 855.22 499.17"/><polygon class="cls-1" points="102.91 613.08 106.57 612.49 108.15 613.49 108.93 611.97 110.37 611.41 111.85 611.95 118 610.75 119.97 611.32 123 610.69 124.15 609.75 124.2 607.08 125.32 606.43 124.31 605.48 124.66 603.5 126.74 603.3 127.88 599.46 129.79 598.71 132.14 596.15 132.62 593.62 135.95 591.69 137.34 591.91 137.78 592.94 139.65 592.95 140.88 594.1 146.85 594.62 146.96 593.22 148.27 592.71 150.61 594.42 154.88 593.66 157.16 595.87 159.48 596.07 163.16 595.56 164.71 594.9 164.41 594.4 166.12 594.25 166.76 591.91 172.05 589.87 172.37 587.97 173.46 587.88 174.73 586.66 178.07 587.17 180.06 588.24 181.33 587.26 184.54 587.59 185.28 591.21 187.77 592.88 190.03 592.46 193.03 593.2 194.99 592.95 195.85 593.97 197.43 594.08 202.28 593.6 204.66 592.43 208.31 593.66 213.6 591.34 213.63 589.98 221.14 588.19 224.95 586.12 229.51 585.48 234.54 586.82 234.54 587.84 235.94 588.07 237.9 586.05 242.9 585.4 244.83 584.2 247.26 580.59 247.62 578.71 248.68 578.12 252.63 576.92 253.66 577.27 256.92 576.63 258.54 575.48 260.63 575.24 261.31 576.04 263.16 575.22 266.15 575.44 267.02 574.43 269.21 574.14 270.62 573.12 272.17 573.15 272.43 574.19 274.36 574.57 277.5 573.74 280.63 574.02 282.39 572.72 285.35 572.92 287.59 572.09 291.89 571.85 292.44 572.55 294.2 572.4 294.88 573.65 297.7 575.36 300.77 574.14 304.76 576.3 306.83 575.48 311.76 578.27 316.51 579.57 312.04 580.7 310.58 580.4 310.08 581.22 310.45 582.7 312.56 583.76 317.78 584.07 316.34 587.93 317.1 589.13 315.9 590.01 317.1 591.3 315.67 592.45 311.95 593.52 311.96 595 312.56 595.11 311.07 596.13 312.37 597.98 313.72 598.4 313.69 602.59 317.86 602.19 319.13 604.13 316.44 605.95 316.68 607.43 317.78 607.84 317.86 612.21 319.21 613.48 318.38 614.22 318.07 616.76 315.76 617.55 314.8 618.98 317.67 622.53 320.34 623.81 320.06 625.09 321.89 625.94 321.49 627.14 326.23 629.62 326.4 631.53 328.99 634.13 331.3 634.26 335.37 636.67 338.06 637.26 340.89 634.71 344.47 634.73 345.56 633.08 348.77 633.2 349.31 633.8 348.48 634.54 350.5 637.16 354.54 639.52 357.67 640.45 360.07 642.9 363.5 641.62 365.19 642.54 364.69 644.23 365.87 644.81 369.6 643.95 373.29 644.78 374.2 643.93 377.68 645.24 380.44 644.35 381.42 646.57 385.01 645.95 387.6 648.56 389.17 647.97 390.33 649.54 392.95 647.66 394.26 647.56 396.03 648.07 396.94 649.61 398.95 649.33 399.89 650.13 400.77 649.65 402.32 650.36 403.63 648.76 406.75 648.67 407.3 647.15 408.45 647.79 411.7 645.75 414.94 648.14 414.44 648.48 415.57 649.42 417.14 649.85 417.85 651.27 417.3 651.98 419.5 652.71 420.75 653.96 425.16 653.86 426.1 655.4 427.61 655.71 427.97 657.42 427.21 657.96 427.78 658.61 426.41 659.51 429.32 663.64 431.41 662.99 433.83 663.41 435.11 665.01 436.11 664.19 440.63 664.36 442.52 667.69 443.66 666.78 442.89 666.46 443.59 664.9 442.99 663.62 441.29 662.48 441.6 661.65 442.65 661.65 442.34 660.83 444.85 659.92 447.29 662.9 449.32 664.15 451.91 664.05 452.99 665.06 454.38 665.18 455 664.1 453.46 661.66 454.41 660.86 452.76 658.26 455.32 659.18 456.14 658.43 457.4 658.81 457.25 657.5 461.37 658.18 462.68 657.64 462.37 656.64 464.11 657.18 463.25 655.2 463.73 653.25 466.25 652.8 465.11 652.21 466.21 652.01 464.73 650.15 465.33 648.56 471.24 649.56 472.36 648.54 477.02 649.61 481.43 651.78 482.01 654.29 486.04 658.55 485.7 662.03 489.72 666.71 494.83 670.84 492.82 673.26 491.04 671.66 489.99 671.61 489.35 674.48 493.19 678.01 492.84 680.25 496.35 682.81 495.23 684.19 496.82 694.51 497.94 696 498.5 698.93 496.99 703.95 499.3 712.12 496.38 713.35 497.48 715.91 495.57 717.41 496.35 720.29 494.01 720.66 492.79 716.93 489.92 717.47 491.04 722.09 489.17 723.33 489.74 726.58 490.91 727.18 492.3 729.8 491.4 731.9 489.79 733.21 488.32 732.86 485.5 734.31 484.62 730.7 483.17 728.71 481.58 729.48 482.8 731.61 480.87 732.35 478.56 737.09 473.73 729.88 462.59 730.96 441.56 728.03 448.17 719.88 438.98 707.76 425.05 715.98 408.67 711.17 386.17 723.57 368.41 738 352.66 740.43 344.09 735.21 333.78 734.72 319.78 730.26 309.26 735.21 296.37 749.63 294.7 734.3 282.79 738.41 260.01 736.53 237.92 732.07 222.04 723.5 206.85 719.67 200.3 710.34 189.37 707.55 169.65 694.87 153.98 688.95 145.89 693.55 118.72 679.96 99.57 667.7 94.06 646.25 108.07 648.89 108.69 638.93 100.96 628.97 102.91 613.08"/><polygon class="cls-1" points="499.3 712.12 499.21 720.68 500.64 724.95 500.49 728.31 503.19 732.13 504.83 733.27 505.31 731.04 504.5 725.97 507.23 725.02 509.23 720.62 511.08 720 511.54 722.47 513.32 723.42 513.33 725.18 514.39 724.58 515.48 724.99 516.43 727.08 518.02 727.89 517.74 729.08 520.04 730.05 519.95 732.04 517.28 732.78 517.05 733.44 518.16 735.56 520.22 737.24 519.95 738.19 522.58 738.98 522.94 741.75 524.99 738.87 527.27 739.97 529.03 737.96 530.01 738.01 530.45 740.14 531.93 742.47 532.99 742.57 532.74 743.73 533.72 743.9 533.76 746.55 534.84 746.57 537.19 750.13 536.99 751.44 539.31 751.76 538.87 755.23 541.27 756.65 541.33 757.58 543.21 757.95 543.72 761.09 545.05 760.86 544.88 759.92 546.1 760.27 544.93 761.41 545.53 762.02 545.13 763.33 543.77 763.53 543.77 764.31 548.44 767.38 548.86 769.11 547.55 769.62 548.1 771.04 549.49 770.4 550.48 770.91 552.36 774.23 554.07 772.95 557.42 773.75 560.45 770.84 566.31 768.03 567.76 768.57 567.22 770.24 568.55 771.05 572.57 768.03 574.69 768.29 574.87 765.72 576.14 764.72 572.47 755.14 573.24 753.34 572.74 749.88 573.88 747.64 574.76 748.51 577.71 747.52 579.39 744.64 580.64 744.68 580.39 743.5 584.62 739.95 584.86 737.93 585.96 736.79 584.88 736.93 584.54 735.76 583.63 735.82 583.77 733.89 587.36 731.27 588.84 732.38 591.88 730.44 590.29 726.21 591.46 723.4 593.54 724.62 596.4 724.55 599.28 723.39 600.45 724.28 602.67 724.13 601.39 725.49 599.31 726.07 599.47 728.68 600.28 730.1 601.75 729.85 602.23 731.07 603.41 731.5 602.26 732.53 603.4 732.86 603.07 734.01 602.03 735.17 600.45 735.43 604.32 738.58 605.8 739.35 611.59 738.09 613.5 735.15 614.88 734.46 617.55 735.11 617.78 736.51 619.17 736.37 619.45 737.7 618.55 738.55 618.91 739.69 620.04 739.92 619.87 742 619.93 743.64 618.42 745.12 619.03 745.69 617.71 748.46 615.42 747.62 611.35 750.07 610.38 748.89 609.57 749.6 608.84 749.08 606.5 749.71 604.91 749.19 604.48 747.89 601.5 746.67 599.47 749.85 598.02 750.47 594.76 748.38 594.79 747.29 593.19 747.15 591.96 749.76 588.73 753.04 587.27 753.46 587.86 754.34 586.73 754.43 587.02 755.6 588.64 754.75 590.14 756.63 590.09 758.18 588.67 759.46 589.27 760.97 589.97 760.88 589.55 763 590.85 764.7 594.67 765.09 597.01 762.62 601.12 763.05 602.41 761.31 603.35 763.39 605.5 763.79 605.6 764.9 607.39 766.69 607.73 767.85 605.02 770.25 604.59 773.3 603.32 773.75 603 777.56 601.79 780.24 600.76 779.9 600.53 781.75 600.85 782.76 602.8 783.2 602.92 785.16 605.42 784.34 605.06 786.63 606.98 787.46 607.19 788.74 610.46 789.62 610.34 791.24 608.95 790.3 607.59 793.03 606.62 793.16 607.72 793.35 608.35 794.55 605.14 797.88 604.85 799.67 603.89 801.21 604.35 802.71 606.33 806.46 608.02 807.58 608.42 805.21 612.87 805.93 614.92 805.3 617.78 807.32 617.51 808.35 618.51 810.16 617.49 811.13 619.03 812.49 620.22 811.56 623.41 813.41 624.35 811.36 625.79 811.14 626.88 813.02 628.99 812.42 630.34 813.3 631.48 812.86 631.86 811.47 633.47 811.35 635.32 813.29 637.27 816.34 636.09 817.8 636.18 822.18 633.42 824.54 633.16 823.74 630.04 823.23 629.66 824.17 626.62 825.5 627.44 826.84 626.7 826.42 625.45 827.18 624.23 828.49 624.14 830.35 618.92 826.33 602.27 836.64 583.33 838.87 567.72 838.8 557.27 843.54 547.1 846.39 550.1 868.62 539.64 868.06 537.9 863.53 537.27 855.45 523 861.16 500 850.3 505.72 834.13 493.32 830.37 488.65 812.47 468.03 815.74 470.4 792.68 488.93 776.45 489.69 760.43 489.07 745.52 480.57 740.92 478.56 737.09 480.87 732.35 482.8 731.61 481.58 729.48 483.17 728.71 484.62 730.7 485.5 734.31 488.32 732.86 489.79 733.21 491.4 731.9 492.3 729.8 490.91 727.18 489.74 726.58 489.17 723.33 491.03 722.1 489.92 717.47 492.79 716.93 494.01 720.66 496.35 720.29 495.57 717.41 497.48 715.91 496.38 713.35 499.3 712.12"/><polygon class="cls-1" points="461.74 449.77 474.5 471.38 470.06 475.27 477.1 482.3 477.7 482.12 484.48 486.45 484.82 487.35 482.62 493.4 490.25 493.06 494.55 488.98 500.59 486.8 508.18 487.1 510.31 485.48 518.42 486.43 521.01 489.56 521.26 491.92 516.99 495.87 514.78 499.48 509.17 502.35 505.93 505.99 512 505.8 516.85 508.62 521.47 509.66 522.83 512.93 526.36 513.68 526.33 515.27 533.12 515.28 533.21 522.76 534.9 522.09 536.38 523.83 540.36 522.53 539.5 523.87 540.81 525.48 542.54 525.92 542.46 527.22 546.41 528.32 548.09 529.56 549.24 528.96 551.22 529.5 552.71 529.21 552.91 528.35 557.12 525 551.96 521.01 559.47 519.68 564.45 518.08 567.39 519.46 575.09 521.01 582.09 516.29 591.36 514.08 593.39 513.97 596.3 514.88 595.55 517.23 598.54 521.19 597.92 524.14 595.15 525.11 592.11 529.89 583.07 534.5 584.48 536.07 585.65 539.4 582.1 540.65 583.04 545.37 588.07 546.56 598 553.9 599.96 553.5 608.86 553.63 607.62 554.74 608.35 555.25 606.1 556.5 606.73 557.43 608.33 557.95 609.83 556.98 611.06 557.57 613.47 560.91 617.29 562.05 617.66 563.97 619.33 564.3 620.45 565.85 617.92 567.36 619.16 570.09 618.77 570.7 620.76 571.37 621.84 574.2 623.2 575.51 623.84 578.35 623.52 579.23 622.24 579.28 620.33 580.91 620.44 583.32 621.65 584.01 621.21 585.01 622.2 584.71 622.81 586 624.75 586.52 624.99 587.26 626.54 586.18 628.59 586.39 627.48 587.26 629.94 589.52 630.4 591.06 631.38 589.9 635.19 590.87 634.45 591.77 634.56 591.11 631.57 591.61 631.59 592.59 635.04 591.69 634.59 592.29 635.63 593.62 636.91 592.15 638.08 592.66 638.35 594.03 640.54 596.05 643.21 593.66 642.05 587.16 644.03 586.18 647.85 587.39 648.18 586.52 649.33 586.77 651.49 584.95 650 583.36 651.71 582.53 650.88 582.19 651.88 581.43 651.86 578.64 651.23 578.89 649.55 576.75 648.27 577 644.49 575.54 644.11 576.24 643.03 575.99 643.47 571.95 640.39 570.16 642.19 570.32 641.93 569.21 643.55 567.08 644.77 566.66 646.02 567.22 645.94 564 645.03 563.84 643.89 562.22 644.71 562.95 645.83 562.56 645.28 559.2 648.09 560.05 648.72 558.78 650.8 559.8 650.91 558.94 653.22 559.66 656.1 558.92 658.26 560.22 658.91 563.44 662.35 563.64 663.44 565.15 666.17 565.08 670.43 566.46 671.43 568.48 672.66 568 672.29 568.84 673.17 569.62 675.33 570.33 676.63 568.95 676.6 570.13 679.15 570.43 680.79 572.75 682.41 571.98 686.28 574.05 685.03 576.13 686.25 578.54 685.79 580.8 685.09 582.22 683.69 582.22 682.15 583.44 682.63 588.08 684.51 589.9 684.24 593.97 681.95 595.08 679.13 594.63 677.06 595.47 675.83 594.6 671.63 595.91 667.16 594.7 666.85 595.73 665.62 595.87 669.61 600.65 668.61 601.45 665.37 602.01 664.04 601.16 663.26 602.33 658.65 601.84 656.81 602.9 656.24 601.82 654.72 601.19 654.62 600.2 651.35 598.77 644.14 598.91 642.97 600.56 644.52 604.18 644.18 605.41 642.13 606.52 642.38 607.59 639.53 608.75 640.1 609.88 642.5 609.72 644.55 610.5 645.99 612.38 647.41 612.75 646.53 615.19 643.67 614.33 643.09 615.05 644.15 615.28 644.97 617.26 643.2 617.95 641.59 622.05 643.03 622.98 642.38 624.01 642.81 625.67 643.94 625.98 644.88 628.08 643.63 629.7 642.32 629.05 641.82 627.39 639.03 627.73 637.06 628.79 635.53 628.36 635.44 627.57 632.63 627.59 630.38 629.81 630.06 632.01 627.75 632 629.44 634.34 632.74 635.42 632.7 636.55 632.13 635.65 631.42 636.53 632.09 636.62 631.82 639.49 630.74 640.55 626.37 641.71 623.66 641.16 622.5 640.8 621.36 641.84 622.84 644.47 616.23 647.29 614.78 646.26 611.73 647.2 610.68 645.97 608.84 646.41 608.05 645.71 606.87 645.92 605.59 644.63 600.38 642.68 600.08 640.54 601.62 640.48 602.8 639.09 601.02 638.57 601.84 637.25 600.44 633.54 602.3 633.88 602.86 633.18 600.24 632.92 598.76 631.6 597.51 628.91 597.78 627.57 595.38 626.08 589.97 626.62 586.47 625.57 584.79 626.18 584.86 623.67 583.41 624.83 581.81 624.97 577.97 623.67 578.52 621.93 577.31 620.73 578.02 619.89 577.43 618.86 578.31 618.2 577.12 616.56 574.66 616.19 574.02 614.33 572.91 613.88 571.99 614.7 569.8 614.85 569.04 616.1 567.38 616.87 568.35 618.4 563.86 618.26 563.08 620.54 560.79 620.19 559.16 620.94 560.5 622.87 560.14 624.06 561.73 624.61 561.25 625.57 562.16 625.17 562.09 627.39 564.22 628.2 564.85 630.41 562.47 631.8 560.64 631.27 559.03 632.91 559.78 633.4 559.44 635.11 557.6 634.2 556.88 635.64 555.16 635.53 553.08 637.27 552.11 637.02 552.36 635.51 551.06 634.43 553.01 633.31 554.36 630.78 552.37 627.5 551.65 627.37 551.16 628.79 550.39 629.67 548.35 629.7 547.56 626.37 545.87 625.78 544.46 625.95 543.8 626.83 540.76 626.18 539.36 626.65 539.9 624.1 539.07 623.1 535.84 621.9 531.53 616.53 532.54 613.82 534.07 612.64 535.78 612.72 537.09 613.69 541.12 614.2 542.32 615.21 548.1 616.45 548.75 617.66 550.45 618.52 552.64 617.07 554.56 617.93 556.8 614.45 558.39 614.77 559.1 613.06 560.45 613.06 558.53 610.13 554.16 608.51 553.84 606.92 552.17 607.87 550.08 606.37 552.48 604.98 553.88 605.6 553.93 602.95 558.06 600.29 560.99 599.48 562.12 597.47 563.17 597.26 562.32 595.13 560.95 594.65 561.63 594.03 561.33 592.26 563.89 592.26 565.99 589.65 569.6 590.38 570.31 588.59 568.97 585.06 570.82 583.89 574.04 584.4 574.39 580.43 572.7 579.51 574.86 577.35 576.23 577.15 571.79 574.56 569.57 569.27 567.89 568.67 567.16 567.53 569.66 566.34 564.42 562.3 565.05 560.1 567.05 558.58 563.91 556.18 562.57 556.36 562.3 555.39 559.61 553.6 555.8 552.6 557.03 550.67 555.49 549.93 555.09 546.9 552.95 548.76 552.34 551.86 550.79 551.57 550.04 550.35 539.9 545.26 537.96 543.49 528.87 540.4 528.15 537.61 523.05 536.21 520.83 533.56 518.76 532.88 518.17 534.45 519.72 536.02 519.96 538.2 510.31 533.94 507.44 531.8 506.96 530.5 505.81 530.67 504.13 528.47 498.42 525 499.18 523.95 497.53 523.33 497 523.78 493.56 521.38 492.44 521.38 488.95 524.29 486.52 523.92 485.08 522.44 483.26 522.28 482.88 523.89 479.33 526.96 477.91 525.75 471.79 523.72 471.36 522.81 464.88 519.77 458.64 519.06 457.05 520.94 458.1 521.95 457.31 525.34 457.99 525.91 457.9 528.73 456.91 529.27 456.96 530.35 457.99 530.95 457.36 535.84 449.25 533.73 448.86 532.03 444.87 530.04 443.08 530.4 441.38 529.36 440.49 529.86 439.5 528.01 436.69 527.48 434.23 525.42 434 525.85 432.58 525.31 430.28 522.75 427.3 521.62 424.85 519.06 422.23 519.57 417.67 518.31 413.97 518.35 411.96 517.03 405.15 517.04 404.62 516.41 399.75 517.85 397.33 518 396.51 517.49 393.87 518.04 389.83 517.38 388.74 518.68 381 520.07 379.24 519.66 379.1 514.14 377.76 512.36 375.6 505.93 378.61 501.58 378.52 493.91 387.09 494.42 392.66 491.68 395.93 486.57 399.73 482.44 412.93 472.1 420.75 469.04 429.68 467.59 432.55 468.21 435.92 467.85 438.45 466.81 439.72 464.57 439.15 462.6 440.54 453.11 445.3 449.77 461.74 449.77"/><polygon class="cls-1" points="938.41 731.65 927.72 733.09 915.25 751.49 915.25 751.49 913.16 749 913.06 748.06 911.64 748.06 911.05 747.31 908.92 747.55 906.92 749.06 906.3 748.32 905.07 749.59 901.72 749.74 901.96 749.31 900.09 747.2 900.49 745.86 898.99 744.19 899.15 742.7 897.55 742.59 897.19 743.19 896.33 742.94 895.49 745.73 894.03 745.33 891.45 747.54 889.25 747.29 889.11 746.32 886.92 746.07 885.93 746.78 885.07 746.81 884.39 745.7 884.67 741.86 883.11 738.09 881.4 736.79 881.18 735.28 882.76 733.98 882.17 732.84 882.88 731.59 881.05 730.31 879.07 731.38 878.49 730.7 876.98 730.9 876.79 731.69 875.6 730.7 876.71 729.85 875.9 728.43 876.45 727.18 875.46 726.72 875.77 723.28 874.74 721.08 873.13 720.14 872.38 718.42 871.13 718.67 871.55 718.04 870.87 717.3 869.22 717.08 868.13 715.05 868.77 711.25 870.58 711.15 871.38 710.07 871.04 709.28 872.03 708.51 873.24 708.71 873.41 707.32 875.08 707.65 876.73 707.05 878.01 705.03 881.71 702.7 882.02 700.55 884.73 698.5 884.75 694.54 883.87 694.42 885.32 693.4 884.52 691.35 885.93 690.5 887.68 691.53 891.24 691.83 891.68 690.84 894.57 690.36 893.13 687.22 891.5 687.09 891.49 685.6 892.9 685.46 894.26 684.22 895.4 684.92 896.3 682.39 897.96 681.31 899.16 675.48 902.03 674.63 904.55 674.77 906.17 677.66 909.26 679.4 913.49 679.04 913.32 680.31 914.69 679.63 916.2 682.7 917.65 680.91 920.06 680.11 919.98 678.7 923.76 677.95 925.7 678.15 925.5 681.52 927.75 681.06 928.26 682.37 929.91 682.36 930.79 683.1 930.96 684.18 934.86 694.38 946.35 700.38 943.36 716.26 938.41 731.65"/><polygon class="cls-1" points="701.27 774.51 702.16 775.17 704.35 774.2 705.94 775.38 704.75 777.39 707.22 777.65 707.98 776.7 707.3 774.74 708.81 774.48 710.7 771.27 711.89 772.04 713.03 771.81 712.68 774.23 714.37 774.74 715.17 773.77 716.29 775.82 717.69 775.57 718.69 773.26 721.24 771.65 723.27 768.62 725.18 769.43 725.78 769 726.17 770.27 729.3 770.16 730.24 767.64 730.77 768.89 735.98 770 736.02 772.6 734.74 775.03 735.1 777.16 736.28 777.99 737.23 777.08 740.37 777.77 739.06 778.35 739.35 779.58 736.72 780.67 737.4 782.8 736.56 785.93 732.71 789.02 732.8 790.34 730.72 791.42 729.93 794.52 730.7 796.03 731.71 795.96 732.66 795.62 732.69 793.93 735.99 791.72 737.46 792.66 738.46 791.99 739.26 792.58 738.91 793.69 739.88 794.11 739.15 795.01 740.09 798.41 739.28 800.91 741.73 801.52 744.5 798.7 750.66 799.58 749.42 800.04 748.81 801.69 750.27 803.28 749.96 804.84 751.41 807 749.82 808.88 747.71 809.8 748.82 814.52 747.36 814.88 746.42 817.48 743.33 817.39 742.75 819.1 743.7 819.44 742.75 820.78 740.25 821.03 740.09 822.66 738.57 824.16 737.69 827.71 738.49 830.03 738.11 831.44 739.12 832.53 737.75 833.97 737.7 835.35 734.97 838.11 731.89 838.48 732.51 839.15 731.85 839.98 726.94 841.78 726.26 841.34 725.77 843.56 724.63 843.5 725.14 845.55 726.59 847.15 724.86 847.29 723.72 849.72 722.41 848.86 721.17 849.77 719.48 848.6 718.63 849.38 717.94 848.89 718.64 854.81 717.1 854.3 716.07 855.01 710.93 854.97 709.38 859.28 707.39 859.62 706.83 858.96 706.45 860.95 707.54 864.3 681.35 858.1 672.08 861.23 652.43 856.22 643.1 848.35 646.23 837.13 628.33 833.58 624.14 830.35 624.17 828.52 625.39 827.23 626.64 826.46 627.38 826.89 626.56 825.55 629.6 824.21 629.98 823.28 633.1 823.79 633.36 824.59 636.12 822.23 636.03 817.85 637.21 816.39 635.25 813.33 633.4 811.39 631.8 811.51 631.42 812.87 630.29 813.33 628.95 812.46 626.82 813.04 625.73 811.17 624.31 811.38 623.37 813.43 620.16 811.58 618.97 812.5 617.43 811.14 618.45 810.17 617.43 808.37 617.71 807.34 614.86 805.32 612.8 805.96 608.36 805.22 607.96 807.61 606.27 806.47 604.29 802.74 603.85 801.24 604.8 799.7 608.7 801.85 610.89 800.71 611.48 799.49 614.59 798.47 615.36 796.13 618.02 794.58 619.22 795.82 622.21 795.8 623.83 798.25 625.56 798.27 629.7 800.26 632.08 799.79 633.85 801.51 636.81 799.01 637.34 797.11 636.33 795.23 642.04 794.03 644.85 792.76 646.22 791.19 650.78 790.88 651.38 789.65 652.66 789.83 653.13 787.78 652.15 786.1 654.24 784.51 654.08 783.68 657.31 782.79 657.38 783.71 659.48 785.09 658.91 786.24 661.05 786.87 661.28 788.89 662.24 788.68 662.12 790.34 665.82 788.38 666.39 790.65 667.53 789.82 667.99 792.13 669.43 792.15 672.37 790.68 674.42 790.64 674.99 787.17 675.96 786.66 675.25 785.99 677.01 786.27 678.57 784.21 680.42 785.99 681.88 785.78 684 788.26 683.98 785.49 685.63 784.42 685.26 783.42 686.2 782.48 687.61 782.31 688.1 784.3 690.61 783.71 692.59 784.44 693.26 783.93 692.49 782 693.25 780.27 691.92 780.35 690.69 781.49 689.83 780.74 691.18 780.38 691.66 779.35 694.02 778.89 694.44 780.01 695.33 779.7 695.11 778.9 696.44 780.49 698.32 780.23 698.34 778.42 701.27 774.51"/><polygon class="cls-1" points="830.87 701 832.23 700.82 833.34 701.77 837.41 699.52 838.72 699.54 839.75 696.5 841.25 696.11 845.78 698.52 844.07 701.2 840.99 703.47 841.52 703.84 840.96 704.58 842.3 705.98 843.07 705.32 844.63 705.87 847.65 703.68 849.91 703.14 850.36 701.8 849.14 700.8 851.86 698.97 852.66 699.32 852.75 700.82 854.28 700.46 854.71 701.19 855.91 700.49 856.56 703.61 858.06 704.25 858.25 705.36 860.52 705.04 861.51 706.3 867.48 705.75 869.88 707.14 869.77 708.74 871.01 709.33 871.35 710.11 870.54 711.19 868.74 711.3 868.09 715.08 869.19 717.11 870.84 717.33 871.52 718.07 871.09 718.69 872.33 718.46 873.09 720.17 874.69 721.09 875.73 723.3 875.43 726.74 876.42 727.18 875.87 728.45 876.68 729.87 875.57 730.7 873.45 731.95 874.51 732.67 873.97 734.43 869.67 735.23 869.05 737.02 867.78 736.54 864.42 737.35 862 740.12 859.49 738.81 857.92 736.53 854.4 739.07 854.06 738.24 853.31 738.79 853.57 740.66 851.69 742.42 849.81 742.45 849.67 743.54 848.85 742.68 848.06 743.08 848.13 744.79 849.28 744.73 849.91 746.12 849.74 749.25 850.99 750.38 848.97 752.35 848.65 753.8 846.57 755.26 841.79 755.96 838.93 758.79 839.13 760.21 838.23 761.34 839.34 762.63 838.76 764.13 840.66 766.01 839.95 767.78 838.33 767.31 836.02 769.88 835.96 771.55 837.35 771.67 837.75 772.93 835.85 774.31 835.37 775.76 830.79 777.82 831.73 779.46 829.33 781.15 829.4 783.45 828.1 785.53 828.48 788.22 825.44 790.39 826.91 793.46 825.78 794.09 826.38 794.78 825.95 795.77 826.31 796.9 824.67 796.42 823.5 799.44 825.06 802.94 822.76 803.43 821.91 802.29 819.91 801.85 818.09 799.18 816.87 798.76 810.96 801.04 810.1 800.23 807.02 801.04 806.23 803.03 803.81 802.02 803.1 803.63 802.11 802.71 797.67 804.47 796.24 802.51 795.28 802.8 794.73 801.72 792.68 800.86 795.73 799.41 797.07 796.9 796.98 795.45 799.68 794.07 800.23 792.87 801.91 793.01 803.51 792.19 802.56 791.18 803.64 789.09 799.69 786.41 796.81 788.37 791.67 788.46 789.93 789.59 790.04 787.47 788.57 785.65 788.16 785.21 789.1 783.63 787.62 780.46 789.87 776.57 789.5 774.82 790.15 773.67 791.2 773.75 793.82 772.16 792.64 771.02 790.9 771.92 790.05 771.44 788.13 771.87 789.98 769.08 789.93 767.69 790.96 767.11 791.66 763.65 787.56 763.16 786.66 762.39 786.15 759.49 787.88 756.63 784.83 753.72 786.77 750.17 786.86 748.28 783.41 749.25 781.8 749 781.31 746.63 782 745.81 781.05 745.26 781.7 743.42 784.66 740.21 784.06 738.63 784.63 737.48 786.51 736.14 787.66 736.45 789.96 735.34 789.13 732.93 791.04 732.76 794.22 729.99 794.28 728.69 792.69 727.89 793.43 726.94 790.89 725.66 791.77 724.59 792.18 720.37 790.56 719.95 789.38 717.82 788.56 717.96 788.2 716.05 790.56 712.89 794.11 712.37 794.48 710.1 799.25 710.67 802.39 709.25 803.95 709.88 806.54 709.31 807.65 707.83 806.71 708.29 806.2 707.62 806.85 706.64 807.91 707.18 807.76 706.46 808.77 705.83 811.83 706.95 812.12 705.46 811.36 705.33 810.89 703.73 813.94 704.15 814.37 704.84 817.92 702.61 818.71 700.66 821.96 700.38 826.85 702.93 829.17 702.43 830.87 701"/><polygon class="cls-1" points="851.42 821.24 848.63 819.49 847.11 815.74 847.32 813.89 846.24 812.19 847.59 810.37 846.44 809.54 844.75 804.65 842.96 803.33 843.76 800.75 838.35 802.09 837.76 800.09 835.54 798.36 836.36 797.61 835.9 796.94 832.97 798.53 832.06 797.13 829.61 797.36 828.7 796.4 825.92 795.75 826.35 794.77 825.75 794.08 826.88 793.46 825.41 790.37 828.45 788.2 828.06 785.52 829.38 783.43 829.3 781.12 831.7 779.44 830.76 777.81 835.36 775.74 835.82 774.29 837.72 772.92 837.32 771.67 835.93 771.53 835.99 769.87 838.3 767.29 839.92 767.77 840.63 766 838.73 764.1 839.3 762.6 838.2 761.32 839.11 760.18 838.9 758.76 841.76 755.91 846.54 755.23 848.62 753.74 848.94 752.32 850.96 750.34 849.73 749.19 849.9 746.07 849.27 744.67 848.11 744.75 848.05 743.03 848.83 742.6 849.65 743.47 849.79 742.37 851.67 742.36 853.55 740.6 853.29 738.73 854.05 738.18 854.37 739.01 857.89 736.45 859.47 738.75 861.97 740.06 864.39 737.27 867.75 736.48 869.02 736.96 869.63 735.17 873.95 734.37 874.48 732.63 873.43 731.9 875.56 730.67 876.74 731.65 876.93 730.87 878.44 730.68 879.03 731.36 881 730.28 882.84 731.56 882.13 732.81 882.71 733.95 881.14 735.25 881.35 736.76 883.07 738.05 884.62 741.83 884.35 745.67 884.81 746.67 885.89 746.74 886.88 746.04 889.06 746.29 889.2 747.24 891.41 747.49 893.98 745.29 895.45 745.7 896.28 742.91 897.14 743.16 897.5 742.54 899.1 742.65 898.95 744.14 900.44 745.83 900.14 747.31 901.91 749.26 901.68 749.7 905.02 749.54 906.26 748.28 906.87 749.02 908.88 747.52 911.01 747.27 911.59 748.03 912.89 747.92 913.12 748.97 915.25 751.49 914.35 752.55 897.45 779.93 879.03 803.79 851.42 821.24"/><polygon class="cls-1" points="851.44 821.26 848.65 819.5 847.12 815.75 847.34 813.9 846.26 812.21 847.6 810.39 846.46 809.56 844.76 804.67 842.98 803.33 843.78 800.77 838.36 802.09 837.78 800.1 835.56 798.38 836.38 797.62 835.91 796.96 832.98 798.55 832.07 797.14 829.62 797.37 828.71 796.42 825.94 795.77 826.29 796.9 824.66 796.42 823.48 799.46 825.04 802.96 822.73 803.43 821.9 802.31 819.89 801.85 818.07 799.19 816.85 798.78 810.95 801.06 810.09 800.24 807 801.06 806.2 803.05 803.78 802.03 803.07 803.65 802.08 802.71 797.64 804.48 796.19 802.54 795.24 802.83 794.68 801.75 792.63 800.87 795.68 799.42 797.02 796.9 796.93 795.46 799.63 794.09 800.18 792.87 801.87 793.03 803.47 792.21 802.51 791.17 803.59 789.09 799.65 786.41 796.76 788.35 791.63 788.46 789.88 789.59 789.99 787.48 788.53 785.65 787.06 786.06 785.78 788.11 784.7 788.15 784.46 787.48 781.02 788.45 780.26 787.43 776.95 786.75 775.73 785.84 775.53 784.44 772.85 785.05 772.23 786.52 770.04 787.78 768.36 788.57 767.03 788.03 767.16 789.7 769.33 789.57 770.38 790.71 769.07 791.45 769.96 792.87 769.28 794 769.85 795.83 767.02 796.48 765.43 796.48 763.04 791.95 760.79 792.02 758.91 790.94 757.98 791.72 757.3 790.76 755.31 791.39 754.31 790.56 752.51 794.8 753.62 796.14 753.26 797.61 750.67 799.53 749.44 800 748.82 801.65 750.29 803.23 749.98 804.79 751.43 806.95 749.84 808.85 747.73 809.77 748.84 814.47 747.37 814.83 746.43 817.45 743.35 817.34 742.76 819.05 743.72 819.39 742.76 820.74 740.26 820.98 740.11 822.63 738.58 824.11 737.7 827.66 738.5 829.99 738.12 831.39 739.14 832.49 737.77 833.92 737.72 835.31 734.99 838.07 731.91 838.44 732.52 839.1 731.86 839.93 726.96 841.74 726.28 841.3 725.78 843.53 724.64 843.45 725.15 845.5 726.6 847.1 724.88 847.24 723.73 849.68 722.42 848.82 721.19 849.72 719.49 848.55 718.64 849.34 717.95 848.86 718.66 854.77 717.12 854.26 716.09 854.97 710.95 854.94 709.39 859.24 707.4 859.58 706.85 858.91 706.46 860.9 707.54 864.3 702.87 871.82 708.03 885.89 718.82 884.78 725.51 864.3 746.2 861.3 773.51 851.55 784.52 841.93 791.28 848.21 803.26 839.57 825.27 837.34 851.44 821.26"/><polygon class="cls-1" points="936.46 515.06 932.42 507.54 947.88 494.44 937.58 484.2 920.51 491.1 901.83 502.72 901.28 499.93 898.95 499.1 899.37 498.38 898.35 496.95 897.88 493.16 892.1 493.23 891.01 492.57 891.21 491.89 889.63 491.94 890.14 490.23 887.74 490.74 883.76 488.13 884.67 485.02 886.5 485.06 887.11 484.25 885.47 483.63 885.63 482.96 888.11 482.61 888.31 481.67 890.31 480.67 889.96 479.94 891.32 479.3 891.39 478.12 892.76 477.44 893.07 477.83 892.66 476.4 894.57 474.99 893.72 473.54 894.74 472.87 893.61 472.48 892.57 470.57 893.13 466.03 893.69 464.83 894.12 463.03 891.38 460.62 892.24 459.56 895.7 458.31 896.48 457.26 898.53 459.8 901.34 460.76 903.22 460.64 903.13 462.8 906.98 468.39 906.75 470.21 908.08 470.69 911.86 465.85 915.46 464.38 915.31 462.77 917.61 461.56 918.39 461.81 923.45 459.62 926.47 459.91 930.99 457.48 932.15 455.95 935.08 455.16 937.22 454.76 938.56 456.3 939.63 456.07 942.48 454.53 943.94 451.48 946.29 450.75 948.38 451.46 949.14 450.69 952.72 451.62 954.01 449.98 952.29 449.72 951.85 448.78 952.49 448.35 955.89 448.75 957.34 449.77 959.3 449.58 961.4 450.74 962.45 449.92 965.98 449.77 969.29 448.69 968.17 448.18 968.25 446.77 969.52 445.57 974.07 444.6 976.05 445.4 977.76 441.66 977.51 440.38 978.42 439.98 978.39 438.22 978.35 438.03 980.18 435.83 984.58 439.84 985.84 439.7 986.5 440.55 988.41 440.44 989.6 441.08 989.82 442.26 992.27 443.85 990.73 445.45 992.52 446.06 991.22 447.45 992.79 448.04 993.1 448.84 996.82 445.99 997.65 444.25 1001.48 442.86 1000.47 444.97 1001.1 445.79 1000.98 449.24 1003.13 449.33 1003.17 451.63 1004.03 452.79 1005.51 452.91 1005.1 454.98 1007.15 456.58 1007 458.73 1008.69 458.68 1009.31 459.25 1009.66 462.06 1010.8 461.35 1013.1 462.06 1009.37 465.42 1010.23 466.16 1009.29 467.87 1010.33 469.43 1009.92 470.89 1012.47 471.17 1012.33 472.54 1014.03 474.93 1013.9 475.9 1016.06 477.6 1016.17 478.96 1018.31 479.56 1018.02 480.57 1019.13 480.84 1017.43 482.16 1017.97 482.78 1016.8 484.69 1014.83 486.11 1016.52 485.86 1004.73 491.59 988.85 504.06 961.54 509.7 947.58 518.74 926.88 523.42 936.46 515.06"/><polygon class="cls-1" points="280.77 335.19 297.7 345.56 325 352.81 338.52 368.56 331 391.27 338.03 399.77 387.5 405.76 411.11 417.95 423.16 420.11 432.08 438.01 443.57 449.58 445.3 449.77 440.54 453.11 439.15 462.6 439.72 464.57 438.45 466.81 435.92 467.85 432.55 468.21 429.68 467.59 420.75 469.04 412.93 472.1 399.73 482.44 395.93 486.57 392.66 491.68 387.09 494.42 378.52 493.91 378.61 501.58 375.6 505.93 377.76 512.36 379.1 514.14 379.24 519.66 370.45 520.87 368.23 522.9 361.83 523.8 358.05 525.26 349.73 526.57 343.47 528.56 336.67 529.52 333.83 529.33 333.52 530.75 330.62 531.61 329.93 532.79 324.67 534 324.69 534.9 331.13 543.27 329.62 544.63 330.44 546.14 330.01 546.68 337.28 549.49 340.01 552.49 342.9 552.69 344.84 557.67 346.63 558.85 347.26 561.24 344.58 561.27 341.45 563.25 338.25 563.38 335.66 565.83 336.31 567.08 335.48 567.91 335.97 569.75 341.77 570.8 341.66 574.79 342.63 575.39 342.02 576.18 343.05 577.04 343.16 579.38 340.72 579.15 339.87 580.45 338.18 580.8 335.02 578.68 326.29 578.01 324.24 577.12 324.38 576.46 321.91 575.81 320.78 579.71 316.51 579.57 311.76 578.27 306.83 575.48 304.76 576.3 300.77 574.14 297.7 575.36 294.88 573.65 294.2 572.4 292.44 572.55 291.89 571.85 287.59 572.09 285.35 572.92 282.39 572.72 280.63 574.02 277.5 573.74 274.36 574.57 272.43 574.19 272.17 573.16 270.62 573.12 269.2 574.14 267.02 574.43 266.15 575.44 263.16 575.22 261.31 576.04 260.63 575.24 258.53 575.48 256.92 576.62 253.66 577.27 252.63 576.92 248.68 578.12 247.62 578.71 247.26 580.59 244.83 584.2 242.9 585.4 237.9 586.05 235.94 588.07 234.54 587.84 234.54 586.82 229.51 585.48 224.95 586.12 221.14 588.19 213.63 589.98 213.6 591.34 208.31 593.66 204.66 592.43 202.28 593.6 197.43 594.08 195.85 593.97 194.99 592.95 193.03 593.2 190.03 592.46 187.77 592.88 185.28 591.21 184.54 587.59 181.33 587.26 180.06 588.24 178.07 587.17 174.73 586.66 173.46 587.88 172.37 587.97 172.04 589.87 166.76 591.91 166.12 594.25 164.41 594.4 164.71 594.9 163.16 595.56 159.48 596.07 157.17 595.87 154.88 593.66 150.61 594.42 148.27 592.71 146.96 593.22 146.85 594.62 140.88 594.1 139.65 592.95 137.78 592.94 137.34 591.91 135.95 591.69 132.62 593.62 132.14 596.15 129.79 598.71 127.88 599.46 126.74 603.3 124.66 603.5 124.31 605.48 125.32 606.43 124.2 607.08 124.15 609.75 123 610.69 119.97 611.32 118 610.75 111.85 611.95 110.37 611.41 108.93 611.97 108.15 613.49 106.57 612.49 102.91 613.08 81.94 590.3 49.83 582.43 44.04 567.52 29.62 558.47 26.14 552.82 23.21 541.75 23.91 534.22 12 529.76 5.59 531.72 0.64 513.74 6.21 509.28 3.5 504.68 22.17 495.49 35.68 491.73 56.3 494.3 63.69 481.9 88.77 479.61 95.73 471.87 126.53 461.28 129.25 456.89 127.71 445.82 141.09 440.73 123.53 406.94 162.27 399.14 172.23 394.82 186.3 359.92 225.1 366.33 235.97 357.55 236.88 337.98 253.11 336.16 267.95 323.2 275.61 321.6 280.77 335.19"/></svg>