# WaveFront *.obj file (generated by Cinema 4D)

mtllib ./平面.mtl

v -1021.9542236328125 0 2048
v -612.354248046875 0 2048
v -202.75422668457031 0 2048
v 206.84577941894531 0 2048
v 616.44580078125 0 2048
v 1026.0457763671875 0 2048
v 1435.645751953125 0 2048
v 1845.245849609375 0 2048
v 2254.845703125 0 2048
v 2664.44580078125 0 2048
v 3074.0458984375 0 2048
v -1021.9542236328125 0 1638.4000244140625
v -612.354248046875 0 1638.4000244140625
v -202.75422668457031 0 1638.4000244140625
v 206.84577941894531 0 1638.4000244140625
v 616.44580078125 0 1638.4000244140625
v 1026.0457763671875 0 1638.4000244140625
v 1435.645751953125 0 1638.4000244140625
v 1845.245849609375 0 1638.4000244140625
v 2254.845703125 0 1638.4000244140625
v 2664.44580078125 0 1638.4000244140625
v 3074.0458984375 0 1638.4000244140625
v -1021.9542236328125 0 1228.800048828125
v -612.354248046875 0 1228.800048828125
v -202.75422668457031 0 1228.800048828125
v 206.84577941894531 0 1228.800048828125
v 616.44580078125 0 1228.800048828125
v 1026.0457763671875 0 1228.800048828125
v 1435.645751953125 0 1228.800048828125
v 1845.245849609375 0 1228.800048828125
v 2254.845703125 0 1228.800048828125
v 2664.44580078125 0 1228.800048828125
v 3074.0458984375 0 1228.800048828125
v -1021.9542236328125 0 819.199951171875
v -612.354248046875 0 819.199951171875
v -202.75422668457031 0 819.199951171875
v 206.84577941894531 0 819.199951171875
v 616.44580078125 0 819.199951171875
v 1026.0457763671875 0 819.199951171875
v 1435.645751953125 0 819.199951171875
v 1845.245849609375 0 819.199951171875
v 2254.845703125 0 819.199951171875
v 2664.44580078125 0 819.199951171875
v 3074.0458984375 0 819.199951171875
v -1021.9542236328125 0 409.5999755859375
v -612.354248046875 0 409.5999755859375
v -202.75422668457031 0 409.5999755859375
v 206.84577941894531 0 409.5999755859375
v 616.44580078125 0 409.5999755859375
v 1026.0457763671875 0 409.5999755859375
v 1435.645751953125 0 409.5999755859375
v 1845.245849609375 0 409.5999755859375
v 2254.845703125 0 409.5999755859375
v 2664.44580078125 0 409.5999755859375
v 3074.0458984375 0 409.5999755859375
v -1021.9542236328125 0 -0.00003051757812
v -612.354248046875 0 -0.00003051757812
v -202.75422668457031 0 -0.00003051757812
v 206.84577941894531 0 -0.00003051757812
v 616.44580078125 0 -0.00003051757812
v 1026.0457763671875 0 -0.00003051757812
v 1435.645751953125 0 -0.00003051757812
v 1845.245849609375 0 -0.00003051757812
v 2254.845703125 0 -0.00003051757812
v 2664.44580078125 0 -0.00003051757812
v 3074.0458984375 0 -0.00003051757812
v -1021.9542236328125 0 -409.60003662109375
v -612.354248046875 0 -409.60003662109375
v -202.75422668457031 0 -409.60003662109375
v 206.84577941894531 0 -409.60003662109375
v 616.44580078125 0 -409.60003662109375
v 1026.0457763671875 0 -409.60003662109375
v 1435.645751953125 0 -409.60003662109375
v 1845.245849609375 0 -409.60003662109375
v 2254.845703125 0 -409.60003662109375
v 2664.44580078125 0 -409.60003662109375
v 3074.0458984375 0 -409.60003662109375
v -1021.9542236328125 0 -819.2000732421875
v -612.354248046875 0 -819.2000732421875
v -202.75422668457031 0 -819.2000732421875
v 206.84577941894531 0 -819.2000732421875
v 616.44580078125 0 -819.2000732421875
v 1026.0457763671875 0 -819.2000732421875
v 1435.645751953125 0 -819.2000732421875
v 1845.245849609375 0 -819.2000732421875
v 2254.845703125 0 -819.2000732421875
v 2664.44580078125 0 -819.2000732421875
v 3074.0458984375 0 -819.2000732421875
v -1021.9542236328125 0 -1228.800048828125
v -612.354248046875 0 -1228.800048828125
v -202.75422668457031 0 -1228.800048828125
v 206.84577941894531 0 -1228.800048828125
v 616.44580078125 0 -1228.800048828125
v 1026.0457763671875 0 -1228.800048828125
v 1435.645751953125 0 -1228.800048828125
v 1845.245849609375 0 -1228.800048828125
v 2254.845703125 0 -1228.800048828125
v 2664.44580078125 0 -1228.800048828125
v 3074.0458984375 0 -1228.800048828125
v -1021.9542236328125 0 -1638.4000244140625
v -612.354248046875 0 -1638.4000244140625
v -202.75422668457031 0 -1638.4000244140625
v 206.84577941894531 0 -1638.4000244140625
v 616.44580078125 0 -1638.4000244140625
v 1026.0457763671875 0 -1638.4000244140625
v 1435.645751953125 0 -1638.4000244140625
v 1845.245849609375 0 -1638.4000244140625
v 2254.845703125 0 -1638.4000244140625
v 2664.44580078125 0 -1638.4000244140625
v 3074.0458984375 0 -1638.4000244140625
v -1021.9542236328125 0 -2048
v -612.354248046875 0 -2048
v -202.75422668457031 0 -2048
v 206.84577941894531 0 -2048
v 616.44580078125 0 -2048
v 1026.0457763671875 0 -2048
v 1435.645751953125 0 -2048
v 1845.245849609375 0 -2048
v 2254.845703125 0 -2048
v 2664.44580078125 0 -2048
v 3074.0458984375 0 -2048
# 121 vertices

vn 0 1 0
# 1 normal

vt 0 0 0
vt 0 0.10000002384186 0
vt 0.09999999403954 0.10000002384186 0
vt 0.09999999403954 0 0
vt 0.19999998807907 0.10000002384186 0
vt 0.19999998807907 0 0
vt 0.30000001192093 0.10000002384186 0
vt 0.30000001192093 0 0
vt 0.39999997615814 0.10000002384186 0
vt 0.39999997615814 0 0
vt 0.5 0.10000002384186 0
vt 0.5 0 0
vt 0.60000002384186 0.10000002384186 0
vt 0.60000002384186 0 0
vt 0.69999992847443 0.10000002384186 0
vt 0.69999992847443 0 0
vt 0.79999995231628 0.10000002384186 0
vt 0.79999995231628 0 0
vt 0.89999997615814 0.10000002384186 0
vt 0.89999997615814 0 0
vt 1 0.10000002384186 0
vt 1 0 0
vt 0 0.20000004768372 0
vt 0.09999999403954 0.20000004768372 0
vt 0.19999998807907 0.20000004768372 0
vt 0.30000001192093 0.20000004768372 0
vt 0.39999997615814 0.20000004768372 0
vt 0.5 0.20000004768372 0
vt 0.60000002384186 0.20000004768372 0
vt 0.69999992847443 0.20000004768372 0
vt 0.79999995231628 0.20000004768372 0
vt 0.89999997615814 0.20000004768372 0
vt 1 0.20000004768372 0
vt 0 0.30000007152557 0
vt 0.09999999403954 0.30000007152557 0
vt 0.19999998807907 0.30000007152557 0
vt 0.30000001192093 0.30000007152557 0
vt 0.39999997615814 0.30000007152557 0
vt 0.5 0.30000007152557 0
vt 0.60000002384186 0.30000007152557 0
vt 0.69999992847443 0.30000007152557 0
vt 0.79999995231628 0.30000007152557 0
vt 0.89999997615814 0.30000007152557 0
vt 1 0.30000007152557 0
vt 0 0.39999997615814 0
vt 0.09999999403954 0.39999997615814 0
vt 0.19999998807907 0.39999997615814 0
vt 0.30000001192093 0.39999997615814 0
vt 0.39999997615814 0.39999997615814 0
vt 0.5 0.39999997615814 0
vt 0.60000002384186 0.39999997615814 0
vt 0.69999992847443 0.39999997615814 0
vt 0.79999995231628 0.39999997615814 0
vt 0.89999997615814 0.39999997615814 0
vt 1 0.39999997615814 0
vt 0 0.5 0
vt 0.09999999403954 0.5 0
vt 0.19999998807907 0.5 0
vt 0.30000001192093 0.5 0
vt 0.39999997615814 0.5 0
vt 0.5 0.5 0
vt 0.60000002384186 0.5 0
vt 0.69999992847443 0.5 0
vt 0.79999995231628 0.5 0
vt 0.89999997615814 0.5 0
vt 1 0.5 0
vt 0 0.60000002384186 0
vt 0.09999999403954 0.60000002384186 0
vt 0.19999998807907 0.60000002384186 0
vt 0.30000001192093 0.60000002384186 0
vt 0.39999997615814 0.60000002384186 0
vt 0.5 0.60000002384186 0
vt 0.60000002384186 0.60000002384186 0
vt 0.69999992847443 0.60000002384186 0
vt 0.79999995231628 0.60000002384186 0
vt 0.89999997615814 0.60000002384186 0
vt 1 0.60000002384186 0
vt 0 0.69999998807907 0
vt 0.09999999403954 0.69999998807907 0
vt 0.19999998807907 0.69999998807907 0
vt 0.30000001192093 0.69999998807907 0
vt 0.39999997615814 0.69999998807907 0
vt 0.5 0.69999998807907 0
vt 0.60000002384186 0.69999998807907 0
vt 0.69999992847443 0.69999998807907 0
vt 0.79999995231628 0.69999998807907 0
vt 0.89999997615814 0.69999998807907 0
vt 1 0.69999998807907 0
vt 0 0.80000001192093 0
vt 0.09999999403954 0.80000001192093 0
vt 0.19999998807907 0.80000001192093 0
vt 0.30000001192093 0.80000001192093 0
vt 0.39999997615814 0.80000001192093 0
vt 0.5 0.80000001192093 0
vt 0.60000002384186 0.80000001192093 0
vt 0.69999992847443 0.80000001192093 0
vt 0.79999995231628 0.80000001192093 0
vt 0.89999997615814 0.80000001192093 0
vt 1 0.80000001192093 0
vt 0 0.90000003576279 0
vt 0.09999999403954 0.90000003576279 0
vt 0.19999998807907 0.90000003576279 0
vt 0.30000001192093 0.90000003576279 0
vt 0.39999997615814 0.90000003576279 0
vt 0.5 0.90000003576279 0
vt 0.60000002384186 0.90000003576279 0
vt 0.69999992847443 0.90000003576279 0
vt 0.79999995231628 0.90000003576279 0
vt 0.89999997615814 0.90000003576279 0
vt 1 0.90000003576279 0
vt 0 1 0
vt 0.09999999403954 1 0
vt 0.19999998807907 1 0
vt 0.30000001192093 1 0
vt 0.39999997615814 1 0
vt 0.5 1 0
vt 0.60000002384186 1 0
vt 0.69999992847443 1 0
vt 0.79999995231628 1 0
vt 0.89999997615814 1 0
vt 1 1 0
# 121 texture coordinates

o 平面
usemtl default
f 2/4/1 13/3/1 12/2/1 1/1/1
f 3/6/1 14/5/1 13/3/1 2/4/1
f 4/8/1 15/7/1 14/5/1 3/6/1
f 5/10/1 16/9/1 15/7/1 4/8/1
f 6/12/1 17/11/1 16/9/1 5/10/1
f 7/14/1 18/13/1 17/11/1 6/12/1
f 8/16/1 19/15/1 18/13/1 7/14/1
f 9/18/1 20/17/1 19/15/1 8/16/1
f 10/20/1 21/19/1 20/17/1 9/18/1
f 11/22/1 22/21/1 21/19/1 10/20/1
f 13/3/1 24/24/1 23/23/1 12/2/1
f 14/5/1 25/25/1 24/24/1 13/3/1
f 15/7/1 26/26/1 25/25/1 14/5/1
f 16/9/1 27/27/1 26/26/1 15/7/1
f 17/11/1 28/28/1 27/27/1 16/9/1
f 18/13/1 29/29/1 28/28/1 17/11/1
f 19/15/1 30/30/1 29/29/1 18/13/1
f 20/17/1 31/31/1 30/30/1 19/15/1
f 21/19/1 32/32/1 31/31/1 20/17/1
f 22/21/1 33/33/1 32/32/1 21/19/1
f 24/24/1 35/35/1 34/34/1 23/23/1
f 25/25/1 36/36/1 35/35/1 24/24/1
f 26/26/1 37/37/1 36/36/1 25/25/1
f 27/27/1 38/38/1 37/37/1 26/26/1
f 28/28/1 39/39/1 38/38/1 27/27/1
f 29/29/1 40/40/1 39/39/1 28/28/1
f 30/30/1 41/41/1 40/40/1 29/29/1
f 31/31/1 42/42/1 41/41/1 30/30/1
f 32/32/1 43/43/1 42/42/1 31/31/1
f 33/33/1 44/44/1 43/43/1 32/32/1
f 35/35/1 46/46/1 45/45/1 34/34/1
f 36/36/1 47/47/1 46/46/1 35/35/1
f 37/37/1 48/48/1 47/47/1 36/36/1
f 38/38/1 49/49/1 48/48/1 37/37/1
f 39/39/1 50/50/1 49/49/1 38/38/1
f 40/40/1 51/51/1 50/50/1 39/39/1
f 41/41/1 52/52/1 51/51/1 40/40/1
f 42/42/1 53/53/1 52/52/1 41/41/1
f 43/43/1 54/54/1 53/53/1 42/42/1
f 44/44/1 55/55/1 54/54/1 43/43/1
f 46/46/1 57/57/1 56/56/1 45/45/1
f 47/47/1 58/58/1 57/57/1 46/46/1
f 48/48/1 59/59/1 58/58/1 47/47/1
f 49/49/1 60/60/1 59/59/1 48/48/1
f 50/50/1 61/61/1 60/60/1 49/49/1
f 51/51/1 62/62/1 61/61/1 50/50/1
f 52/52/1 63/63/1 62/62/1 51/51/1
f 53/53/1 64/64/1 63/63/1 52/52/1
f 54/54/1 65/65/1 64/64/1 53/53/1
f 55/55/1 66/66/1 65/65/1 54/54/1
f 57/57/1 68/68/1 67/67/1 56/56/1
f 58/58/1 69/69/1 68/68/1 57/57/1
f 59/59/1 70/70/1 69/69/1 58/58/1
f 60/60/1 71/71/1 70/70/1 59/59/1
f 61/61/1 72/72/1 71/71/1 60/60/1
f 62/62/1 73/73/1 72/72/1 61/61/1
f 63/63/1 74/74/1 73/73/1 62/62/1
f 64/64/1 75/75/1 74/74/1 63/63/1
f 65/65/1 76/76/1 75/75/1 64/64/1
f 66/66/1 77/77/1 76/76/1 65/65/1
f 68/68/1 79/79/1 78/78/1 67/67/1
f 69/69/1 80/80/1 79/79/1 68/68/1
f 70/70/1 81/81/1 80/80/1 69/69/1
f 71/71/1 82/82/1 81/81/1 70/70/1
f 72/72/1 83/83/1 82/82/1 71/71/1
f 73/73/1 84/84/1 83/83/1 72/72/1
f 74/74/1 85/85/1 84/84/1 73/73/1
f 75/75/1 86/86/1 85/85/1 74/74/1
f 76/76/1 87/87/1 86/86/1 75/75/1
f 77/77/1 88/88/1 87/87/1 76/76/1
f 79/79/1 90/90/1 89/89/1 78/78/1
f 80/80/1 91/91/1 90/90/1 79/79/1
f 81/81/1 92/92/1 91/91/1 80/80/1
f 82/82/1 93/93/1 92/92/1 81/81/1
f 83/83/1 94/94/1 93/93/1 82/82/1
f 84/84/1 95/95/1 94/94/1 83/83/1
f 85/85/1 96/96/1 95/95/1 84/84/1
f 86/86/1 97/97/1 96/96/1 85/85/1
f 87/87/1 98/98/1 97/97/1 86/86/1
f 88/88/1 99/99/1 98/98/1 87/87/1
f 90/90/1 101/101/1 100/100/1 89/89/1
f 91/91/1 102/102/1 101/101/1 90/90/1
f 92/92/1 103/103/1 102/102/1 91/91/1
f 93/93/1 104/104/1 103/103/1 92/92/1
f 94/94/1 105/105/1 104/104/1 93/93/1
f 95/95/1 106/106/1 105/105/1 94/94/1
f 96/96/1 107/107/1 106/106/1 95/95/1
f 97/97/1 108/108/1 107/107/1 96/96/1
f 98/98/1 109/109/1 108/108/1 97/97/1
f 99/99/1 110/110/1 109/109/1 98/98/1
f 101/101/1 112/112/1 111/111/1 100/100/1
f 102/102/1 113/113/1 112/112/1 101/101/1
f 103/103/1 114/114/1 113/113/1 102/102/1
f 104/104/1 115/115/1 114/114/1 103/103/1
f 105/105/1 116/116/1 115/115/1 104/104/1
f 106/106/1 117/117/1 116/116/1 105/105/1
f 107/107/1 118/118/1 117/117/1 106/106/1
f 108/108/1 119/119/1 118/118/1 107/107/1
f 109/109/1 120/120/1 119/119/1 108/108/1
f 110/110/1 121/121/1 120/120/1 109/109/1

