{
	"nodes":[{
		"children":[1,
		2],
		"name":"阿巴嘎旗 (1)",
		"translation":[368.4529724121094,
		189.97219848632813,
		0.0],
		"rotation":[0.0,
		0.0,
		0.0,
		-1.0],
		"scale":[1.0,
		1.0,
		1.0]
	},
	{
		"name":"边缘",
		"translation":[-368.4529724121094,
		-189.97219848632813,
		0.0],
		"rotation":[0.0,
		0.0,
		0.0,
		-1.0],
		"scale":[1.0,
		1.0,
		1.0],
		"mesh":0
	},
	{
		"children":[3,
		4],
		"name":"挤压",
		"translation":[0.023450903594493867,
		-85.42579650878906,
		0.4389412999153137],
		"rotation":[0.7089152932167053,
		-2.2176311556937468e-19,
		2.2176311556937468e-19,
		-0.7052936553955078],
		"scale":[1.0,
		1.0,
		1.0]
	},
	{
		"name":"挤压-材质",
		"mesh":1
	},
	{
		"name":"挤压-材质.1",
		"mesh":2
	}],
	"asset":{
		"version":"2.0",
		"generator":"Created using the official Cinema 4D glTF Exporter 1.000x284978"
	},
	"images":[{
		"uri":"data:image/jpeg;base64,"
	},
	{
		"uri":"data:image/jpeg;base64,"
	}],
	"scenes":[{
		"nodes":[0]
	}],
	"meshes":[{
		"name":"边缘",
		"primitives":[{
			"attributes":{
				"POSITION":1,
				"NORMAL":2,
				"TEXCOORD_0":3
			},
			"indices":0,
			"material":0
		}]
	},
	{
		"name":"挤压-材质",
		"primitives":[{
			"attributes":{
				"POSITION":5,
				"NORMAL":6,
				"TEXCOORD_0":7
			},
			"indices":4,
			"material":1
		}]
	},
	{
		"name":"挤压-材质.1",
		"primitives":[{
			"attributes":{
				"POSITION":9,
				"NORMAL":10,
				"TEXCOORD_0":11
			},
			"indices":8,
			"material":2
		}]
	}],
	"accessors":[{
		"bufferView":0,
		"type":"SCALAR",
		"componentType":5123,
		"count":39744,
		"byteOffset":0,
		"min":[0],
		"max":[7285]
	},
	{
		"bufferView":1,
		"type":"VEC3",
		"componentType":5126,
		"count":7286,
		"byteOffset":0,
		"min":[246.1722412109375,
		103.52976989746094,
		-148.87750244140626],
		"max":[490.64630126953127,
		105.56315612792969,
		149.74755859375]
	},
	{
		"bufferView":1,
		"type":"VEC3",
		"componentType":5126,
		"count":7286,
		"byteOffset":12,
		"min":[-0.9999356865882874,
		-0.9999997615814209,
		-0.9999775290489197],
		"max":[0.9999331831932068,
		0.9999997615814209,
		0.9999775886535645]
	},
	{
		"bufferView":1,
		"type":"VEC2",
		"componentType":5126,
		"count":7286,
		"byteOffset":24,
		"min":[0.0,
		0.0],
		"max":[1.0,
		1.0]
	},
	{
		"bufferView":2,
		"type":"SCALAR",
		"componentType":5123,
		"count":1092,
		"byteOffset":0,
		"min":[0],
		"max":[367]
	},
	{
		"bufferView":3,
		"type":"VEC3",
		"componentType":5126,
		"count":368,
		"byteOffset":0,
		"min":[-121.88471984863281,
		-149.04861450195313,
		-20.0],
		"max":[121.88471984863281,
		149.04861450195313,
		0.0]
	},
	{
		"bufferView":3,
		"type":"VEC3",
		"componentType":5126,
		"count":368,
		"byteOffset":12,
		"min":[0.0,
		0.0,
		-1.0],
		"max":[0.0,
		0.0,
		1.0]
	},
	{
		"bufferView":3,
		"type":"VEC2",
		"componentType":5126,
		"count":368,
		"byteOffset":24,
		"min":[0.0,
		0.0],
		"max":[0.817751407623291,
		1.0]
	},
	{
		"bufferView":4,
		"type":"SCALAR",
		"componentType":5123,
		"count":1104,
		"byteOffset":0,
		"min":[0],
		"max":[735]
	},
	{
		"bufferView":5,
		"type":"VEC3",
		"componentType":5126,
		"count":736,
		"byteOffset":0,
		"min":[-121.88471984863281,
		-149.04861450195313,
		-20.0],
		"max":[121.88471984863281,
		149.04861450195313,
		0.0]
	},
	{
		"bufferView":5,
		"type":"VEC3",
		"componentType":5126,
		"count":736,
		"byteOffset":12,
		"min":[-1.0,
		-1.0,
		0.0],
		"max":[1.0,
		1.0,
		0.0]
	},
	{
		"bufferView":5,
		"type":"VEC2",
		"componentType":5126,
		"count":736,
		"byteOffset":24,
		"min":[0.0,
		0.0],
		"max":[1.0,
		1.0]
	}],
	"bufferViews":[{
		"buffer":0,
		"byteOffset":0,
		"byteLength":79488,
		"target":34963
	},
	{
		"buffer":0,
		"byteOffset":79488,
		"byteLength":233152,
		"target":34962,
		"byteStride":32
	},
	{
		"buffer":1,
		"byteOffset":0,
		"byteLength":2184,
		"target":34963
	},
	{
		"buffer":1,
		"byteOffset":2184,
		"byteLength":11776,
		"target":34962,
		"byteStride":32
	},
	{
		"buffer":2,
		"byteOffset":0,
		"byteLength":2208,
		"target":34963
	},
	{
		"buffer":2,
		"byteOffset":2208,
		"byteLength":23552,
		"target":34962,
		"byteStride":32
	}],
	"buffers":[{
		"uri":"data:application/octet-stream;base64,",
		"byteLength":312640
	},
	{
		"uri":"data:application/octet-stream;base64,",
		"byteLength":13960
	},
	{
		"uri":"data:application/octet-stream;base64,",
		"byteLength":25760
	}],
	"samplers":[{
		"magFilter":9729,
		"minFilter":9729,
		"wrapS":10497,
		"wrapT":10497
	},
	{
		"magFilter":9729,
		"minFilter":9729,
		"wrapS":10497,
		"wrapT":10497
	}],
	"textures":[{
		"sampler":0,
		"source":0
	},
	{
		"sampler":1,
		"source":1
	}],
	"materials":[{
		"doubleSided":false,
		"pbrMetallicRoughness":{
			"baseColorFactor":[0.53,
			0.8824999999999998,
			1.0,
			1.0],
			"metallicFactor":0.0,
			"roughnessFactor":0.5
		},
		"emissiveFactor":[0.0,
		0.0,
		0.0],
		"alphaMode":"OPAQUE",
		"name":"材质.2"
	},
	{
		"doubleSided":false,
		"pbrMetallicRoughness":{
			"baseColorTexture":{
				"index":0
			},
			"baseColorFactor":[0.8424500000000001,
			0.87,
			0.04349999999999994,
			1.0],
			"metallicFactor":0.0,
			"roughnessFactor":0.5
		},
		"emissiveFactor":[0.0,
		0.0,
		0.0],
		"alphaMode":"OPAQUE",
		"name":"材质"
	},
	{
		"doubleSided":false,
		"pbrMetallicRoughness":{
			"baseColorTexture":{
				"index":1
			},
			"baseColorFactor":[0.36,
			0.5213333333333351,
			0.8,
			1.0],
			"metallicFactor":0.0,
			"roughnessFactor":0.5
		},
		"emissiveFactor":[0.0,
		0.0,
		0.0],
		"alphaMode":"OPAQUE",
		"name":"材质.1"
	}]
}